# Blender v3.1.2 OBJ File: 'scena.blend'
# www.blender.org
mtllib window.mtl
o building2_okna_Cube.109
v -17.045933 0.211544 -7.353921
v -19.550434 0.211544 -7.353920
v -17.045933 2.364175 -7.353921
v -19.550434 2.364175 -7.353920
v -14.538994 0.211544 -7.353922
v -16.654255 0.211544 -7.353921
v -14.538994 2.364175 -7.353922
v -16.654255 2.364175 -7.353921
v -19.942112 0.211544 -7.353920
v -21.913172 0.211544 -7.353921
v -19.942112 2.364175 -7.353920
v -21.913172 2.364175 -7.353921
v -19.536438 2.968041 -17.233545
v -17.059929 2.968041 -17.233543
v -19.536438 5.122483 -17.233545
v -17.059929 5.122483 -17.233543
v -16.640259 2.968041 -17.204445
v -14.552994 2.968041 -17.204447
v -16.640259 5.122483 -17.204445
v -14.552994 5.122483 -17.204447
v -19.956108 2.968044 -7.463838
v -21.899176 2.968044 -7.463841
v -19.956108 5.122486 -7.463838
v -21.899176 5.122486 -7.463841
v -21.899178 2.968041 -17.204449
v -19.956108 2.968041 -17.204449
v -21.899178 5.122483 -17.204449
v -19.956108 5.122483 -17.204449
v -14.552990 2.968044 -7.463840
v -16.640259 2.968044 -7.463839
v -14.552990 5.122486 -7.463840
v -16.640259 5.122486 -7.463839
v -17.059929 2.968044 -7.463839
v -19.536438 2.968044 -7.463838
v -17.059929 5.122486 -7.463839
v -19.536438 5.122486 -7.463838
v -21.933388 2.149002 -16.797714
v -21.933388 1.129544 -16.797714
v -14.529472 2.149002 -16.802813
v -16.671398 2.149002 -15.415064
v -19.929514 1.129545 -15.420166
v -19.929514 2.149002 -15.420167
v -16.671398 1.129545 -15.415064
v -14.529472 1.129544 -16.802813
v -19.542061 5.973987 -17.235348
v -17.054306 5.973987 -17.235348
v -16.645882 5.973987 -17.235348
v -14.547370 5.973987 -17.235348
v -19.950485 5.973989 -7.438671
v -21.904797 5.973989 -7.438670
v -21.904797 5.973987 -17.235350
v -19.950487 5.973987 -17.235348
v -14.547369 5.973989 -7.438673
v -16.645882 5.973989 -7.438672
v -17.054308 5.973989 -7.438672
v -19.542059 5.973989 -7.438671
v -17.054306 8.136255 -17.235348
v -19.542061 8.136255 -17.235348
v -14.547370 8.136255 -17.235348
v -16.645882 8.136255 -17.235348
v -21.904797 8.136255 -7.438672
v -19.950485 8.136255 -7.438673
v -19.950487 8.136255 -17.235348
v -21.904797 8.136255 -17.235350
v -16.645882 8.136255 -7.438672
v -14.547369 8.136255 -7.438673
v -19.542059 8.136255 -7.438673
v -17.054308 8.136255 -7.438672
v -19.544767 8.804708 -17.209042
v -17.051600 8.804708 -17.209042
v -16.648590 8.804708 -17.209042
v -14.544662 8.804708 -17.209042
v -19.947777 8.804708 -7.426051
v -21.907507 8.804708 -7.426050
v -21.907509 8.804708 -17.209042
v -19.947777 8.804708 -17.209042
v -14.544660 8.804708 -7.426050
v -16.648590 8.804708 -7.426050
v -17.051598 8.804708 -7.426049
v -19.544769 8.804708 -7.426051
v -17.051600 10.631908 -17.209042
v -19.544767 10.631908 -17.209042
v -14.544662 10.631908 -17.209042
v -16.648590 10.631908 -17.209042
v -21.907507 10.631908 -7.426050
v -19.947777 10.631908 -7.426051
v -19.947777 10.631908 -17.209042
v -21.907509 10.631908 -17.209042
v -16.648590 10.631908 -7.426050
v -14.544660 10.631908 -7.426050
v -19.544769 10.631908 -7.426051
v -17.051598 10.631908 -7.426050
v -24.620064 10.822855 -14.965064
v -27.320404 0.211544 -17.315075
v -24.815901 0.211544 -17.315075
v -27.320404 2.364175 -17.315075
v -24.815901 2.364175 -17.315073
v -29.827343 0.211544 -17.315075
v -27.712082 0.211544 -17.315075
v -29.827343 2.364175 -17.315075
v -27.712082 2.364175 -17.315075
v -24.424223 0.211544 -17.315075
v -22.453163 0.211544 -17.315071
v -24.424223 2.364175 -17.315075
v -22.453163 2.364175 -17.315071
v -24.829903 2.968041 -7.435450
v -27.306408 2.968041 -7.435452
v -24.829903 5.122483 -7.435450
v -27.306408 5.122483 -7.435452
v -27.726078 2.968041 -7.464550
v -29.813345 2.968041 -7.464550
v -27.726078 5.122483 -7.464550
v -29.813345 5.122483 -7.464549
v -24.410227 2.968044 -17.205158
v -22.467159 2.968044 -17.205153
v -24.410227 5.122486 -17.205158
v -22.467159 5.122486 -17.205153
v -22.467163 2.968041 -7.464545
v -24.410231 2.968041 -7.464547
v -22.467163 5.122483 -7.464544
v -24.410231 5.122483 -7.464547
v -29.813347 2.968044 -17.205158
v -27.726078 2.968044 -17.205158
v -29.813347 5.122486 -17.205156
v -27.726078 5.122486 -17.205158
v -27.306408 2.968044 -17.205158
v -24.829899 2.968044 -17.205158
v -27.306408 5.122486 -17.205158
v -24.829899 5.122486 -17.205158
v -22.432949 2.149002 -7.871280
v -22.432949 1.129544 -7.871280
v -29.836866 2.149002 -7.866184
v -27.694941 2.149002 -9.253931
v -24.436825 1.129545 -9.248828
v -24.436825 2.149002 -9.248828
v -27.694941 1.129545 -9.253931
v -29.836866 1.129544 -7.866184
v -24.824278 5.973986 -7.433647
v -27.312033 5.973986 -7.433649
v -27.720455 5.973986 -7.433649
v -29.818970 5.973986 -7.433649
v -24.415850 5.973989 -17.230324
v -22.461538 5.973989 -17.230324
v -22.461542 5.973986 -7.433644
v -24.415852 5.973986 -7.433647
v -29.818966 5.973989 -17.230324
v -27.720455 5.973989 -17.230324
v -27.312027 5.973989 -17.230324
v -24.824276 5.973989 -17.230324
v -27.312033 8.136255 -7.433649
v -24.824278 8.136255 -7.433647
v -29.818970 8.136255 -7.433649
v -27.720455 8.136255 -7.433649
v -22.461538 8.136256 -17.230322
v -24.415850 8.136256 -17.230322
v -24.415852 8.136255 -7.433647
v -22.461542 8.136255 -7.433645
v -27.720455 8.136256 -17.230324
v -29.818966 8.136256 -17.230324
v -24.824276 8.136256 -17.230322
v -27.312027 8.136256 -17.230324
v -24.821571 8.804708 -7.459952
v -27.314739 8.804708 -7.459955
v -27.717749 8.804708 -7.459955
v -29.821674 8.804708 -7.459955
v -24.418560 8.804708 -17.242943
v -22.458830 8.804708 -17.242945
v -22.458832 8.804708 -7.459953
v -24.418562 8.804708 -7.459952
v -29.821676 8.804708 -17.242947
v -27.717745 8.804708 -17.242947
v -27.314739 8.804708 -17.242947
v -24.821568 8.804708 -17.242943
v -27.314739 10.631908 -7.459955
v -24.821571 10.631908 -7.459952
v -29.821674 10.631908 -7.459955
v -27.717749 10.631908 -7.459955
v -22.458830 10.631908 -17.242945
v -24.418560 10.631908 -17.242945
v -24.418562 10.631908 -7.459953
v -22.458832 10.631908 -7.459953
v -27.717745 10.631908 -17.242947
v -29.821676 10.631908 -17.242947
v -24.821568 10.631908 -17.242943
v -27.314739 10.631908 -17.242947
v -14.285380 0.211543 -9.497826
v -14.285379 0.211544 -7.680934
v -14.285380 2.364174 -9.497826
v -14.285379 2.364175 -7.680935
v -14.285381 0.211543 -12.341362
v -14.285380 0.211543 -9.910036
v -14.285381 2.364174 -12.341362
v -14.285380 2.364174 -9.910036
v -14.285381 0.211543 -14.831703
v -14.285381 0.211543 -12.753572
v -14.285381 2.364172 -14.831703
v -14.285381 2.364174 -12.753573
v -14.285382 0.211541 -16.985199
v -14.285382 0.211543 -15.243916
v -14.285382 2.364172 -16.985199
v -14.285382 2.364172 -15.243916
v -14.328054 2.968043 -12.326632
v -14.328057 2.968043 -9.924766
v -14.328054 5.122486 -12.326632
v -14.328057 5.122486 -9.924766
v -14.328054 2.968041 -14.816976
v -14.328054 2.968043 -12.768303
v -14.328054 5.122486 -14.816976
v -14.328054 5.122486 -12.768303
v -14.328055 2.968041 -16.970467
v -14.328055 2.968041 -15.258645
v -14.328055 5.122483 -16.970467
v -14.328055 5.122483 -15.258646
v -14.328057 2.968043 -9.483093
v -14.328056 2.968044 -7.695662
v -14.328057 5.122486 -9.483096
v -14.328056 5.122486 -7.695662
v -14.311283 5.973987 -12.332550
v -14.311287 5.973987 -9.918849
v -14.311284 5.973987 -14.822893
v -14.311283 5.973987 -12.762385
v -14.311285 5.973987 -16.976383
v -14.311284 5.973987 -15.252728
v -14.311287 5.973987 -9.489013
v -14.311286 5.973989 -7.689745
v -14.311287 8.136255 -9.918849
v -14.311283 8.136255 -12.332550
v -14.311283 8.136255 -12.762385
v -14.311284 8.136255 -14.822893
v -14.311284 8.136255 -15.252728
v -14.311285 8.136255 -16.976385
v -14.311286 8.136255 -7.689747
v -14.311287 8.136255 -9.489013
v -14.306959 8.804708 -12.335401
v -14.306958 8.804708 -9.915998
v -14.306960 8.804708 -14.825744
v -14.306959 8.804708 -12.759535
v -14.306961 8.804708 -16.979237
v -14.306960 8.804708 -15.249878
v -14.306958 8.804708 -9.491864
v -14.306957 8.804708 -7.686896
v -14.306958 10.631908 -9.915998
v -14.306959 10.631908 -12.335401
v -14.306959 10.631908 -12.759535
v -14.306960 10.631908 -14.825744
v -14.306960 10.631908 -15.249878
v -14.306961 10.631908 -16.979237
v -14.306957 10.631908 -7.686896
v -14.306958 10.631908 -9.491864
v -30.080956 0.211543 -15.171171
v -30.080956 0.211544 -16.988062
v -30.080956 2.364174 -15.171171
v -30.080956 2.364174 -16.988062
v -30.080956 0.211543 -12.327635
v -30.080956 0.211543 -14.758960
v -30.080956 2.364174 -12.327634
v -30.080956 2.364174 -14.758960
v -30.080956 0.211543 -9.837294
v -30.080956 0.211543 -11.915423
v -30.080956 2.364172 -9.837294
v -30.080956 2.364174 -11.915423
v -30.080956 0.211541 -7.683798
v -30.080956 0.211543 -9.425080
v -30.080956 2.364172 -7.683798
v -30.080956 2.364172 -9.425080
v -30.038282 2.968043 -12.342363
v -30.038280 2.968043 -14.744230
v -30.038282 5.122486 -12.342363
v -30.038280 5.122486 -14.744230
v -30.038284 2.968041 -9.852020
v -30.038284 2.968043 -11.900694
v -30.038284 5.122486 -9.852020
v -30.038284 5.122486 -11.900694
v -30.038284 2.968041 -7.698530
v -30.038284 2.968041 -9.410351
v -30.038284 5.122483 -7.698529
v -30.038284 5.122483 -9.410351
v -30.038280 2.968043 -15.185903
v -30.038280 2.968043 -16.973335
v -30.038280 5.122486 -15.185901
v -30.038280 5.122486 -16.973333
v -30.055054 5.973987 -12.336447
v -30.055050 5.973987 -14.750147
v -30.055054 5.973987 -9.846104
v -30.055054 5.973987 -11.906610
v -30.055054 5.973986 -7.692612
v -30.055054 5.973986 -9.416268
v -30.055050 5.973987 -15.179983
v -30.055050 5.973989 -16.979252
v -30.055050 8.136255 -14.750148
v -30.055054 8.136255 -12.336447
v -30.055054 8.136255 -11.906610
v -30.055054 8.136255 -9.846104
v -30.055054 8.136255 -9.416267
v -30.055054 8.136255 -7.692610
v -30.055050 8.136256 -16.979248
v -30.055050 8.136255 -15.179983
v -30.059378 8.804708 -12.333595
v -30.059380 8.804708 -14.752998
v -30.059378 8.804708 -9.843252
v -30.059378 8.804708 -11.909462
v -30.059380 8.804708 -7.689760
v -30.059378 8.804708 -9.419119
v -30.059380 8.804708 -15.177133
v -30.059380 8.804708 -16.982100
v -30.059380 10.631908 -14.752998
v -30.059378 10.631908 -12.333595
v -30.059378 10.631908 -11.909461
v -30.059378 10.631908 -9.843252
v -30.059378 10.631908 -9.419119
v -30.059380 10.631908 -7.689760
v -30.059380 10.631908 -16.982100
v -30.059380 10.631908 -15.177132
vt 0.000000 0.000000
vt 1.000000 0.000000
vt 1.000000 1.000000
vt 0.000000 1.000000
vt 0.000000 0.000000
vt 1.000000 0.000000
vt 1.000000 1.000000
vt 0.000000 1.000000
vt 0.000000 0.000000
vt 1.000000 0.000000
vt 1.000000 1.000000
vt 0.000000 1.000000
vt 0.000000 0.000000
vt 1.000000 0.000000
vt 1.000000 1.000000
vt 0.000000 1.000000
vt 0.000000 0.000000
vt 1.000000 0.000000
vt 1.000000 1.000000
vt 0.000000 1.000000
vt 0.000000 0.000000
vt 1.000000 0.000000
vt 1.000000 1.000000
vt 0.000000 1.000000
vt 0.000000 0.000000
vt 1.000000 0.000000
vt 1.000000 1.000000
vt 0.000000 1.000000
vt 0.000000 0.000000
vt 1.000000 0.000000
vt 1.000000 1.000000
vt 0.000000 1.000000
vt 0.000000 0.000000
vt 1.000000 0.000000
vt 1.000000 1.000000
vt 0.000000 1.000000
vt 0.000000 0.000000
vt 1.000000 0.000000
vt 1.000000 1.000000
vt 0.000000 1.000000
vt 0.000000 0.000000
vt 1.000000 0.000000
vt 1.000000 1.000000
vt 0.000000 1.000000
vt 0.000000 0.000000
vt 1.000000 0.000000
vt 1.000000 1.000000
vt 0.000000 1.000000
vt 0.000000 0.000000
vt 1.000000 0.000000
vt 1.000000 1.000000
vt 0.000000 1.000000
vt 0.000000 0.000000
vt 1.000000 0.000000
vt 1.000000 1.000000
vt 0.000000 1.000000
vt 0.000000 0.000000
vt 1.000000 0.000000
vt 1.000000 1.000000
vt 0.000000 1.000000
vt 0.000000 0.000000
vt 1.000000 0.000000
vt 1.000000 1.000000
vt 0.000000 1.000000
vt 0.000000 0.000000
vt 1.000000 0.000000
vt 1.000000 1.000000
vt 0.000000 1.000000
vt 0.000000 0.000000
vt 1.000000 0.000000
vt 1.000000 1.000000
vt 0.000000 1.000000
vt 0.000000 0.000000
vt 1.000000 0.000000
vt 1.000000 1.000000
vt 0.000000 1.000000
vt 0.000000 0.000000
vt 1.000000 0.000000
vt 1.000000 1.000000
vt 0.000000 1.000000
vt 0.000000 0.000000
vt 1.000000 0.000000
vt 1.000000 1.000000
vt 0.000000 1.000000
vt 0.000000 0.000000
vt 1.000000 0.000000
vt 1.000000 1.000000
vt 0.000000 1.000000
vt 0.000000 0.000000
vt 1.000000 0.000000
vt 1.000000 1.000000
vt 0.000000 1.000000
vt 0.000000 0.000000
vt 1.000000 0.000000
vt 1.000000 1.000000
vt 0.000000 1.000000
vt 0.000000 0.000000
vt 1.000000 0.000000
vt 1.000000 1.000000
vt 0.000000 1.000000
vt 0.000000 0.000000
vt 1.000000 0.000000
vt 1.000000 1.000000
vt 0.000000 1.000000
vt 0.000000 0.000000
vt 1.000000 0.000000
vt 1.000000 1.000000
vt 0.000000 1.000000
vt 0.000000 0.000000
vt 1.000000 0.000000
vt 1.000000 1.000000
vt 0.000000 1.000000
vt 0.000000 0.000000
vt 1.000000 0.000000
vt 1.000000 1.000000
vt 0.000000 1.000000
vt 0.000000 0.000000
vt 1.000000 0.000000
vt 1.000000 1.000000
vt 0.000000 1.000000
vt 0.000000 0.000000
vt 1.000000 0.000000
vt 1.000000 1.000000
vt 0.000000 1.000000
vt 0.000000 0.000000
vt 1.000000 0.000000
vt 1.000000 1.000000
vt 0.000000 1.000000
vt 0.000000 0.000000
vt 1.000000 0.000000
vt 1.000000 1.000000
vt 0.000000 1.000000
vt 0.000000 0.000000
vt 1.000000 0.000000
vt 1.000000 1.000000
vt 0.000000 1.000000
vt 0.000000 0.000000
vt 1.000000 0.000000
vt 1.000000 1.000000
vt 0.000000 1.000000
vt 0.000000 0.000000
vt 1.000000 0.000000
vt 1.000000 1.000000
vt 0.000000 1.000000
vt 0.000000 0.000000
vt 1.000000 0.000000
vt 1.000000 1.000000
vt 0.000000 1.000000
vt 0.000000 0.000000
vt 1.000000 0.000000
vt 1.000000 1.000000
vt 0.000000 1.000000
vt 0.000000 0.000000
vt 1.000000 0.000000
vt 1.000000 1.000000
vt 0.000000 1.000000
vt 0.000000 0.000000
vt 1.000000 0.000000
vt 1.000000 1.000000
vt 0.000000 1.000000
vt 0.000000 0.000000
vt 1.000000 0.000000
vt 1.000000 1.000000
vt 0.000000 1.000000
vt 0.000000 0.000000
vt 1.000000 0.000000
vt 1.000000 1.000000
vt 0.000000 1.000000
vt 0.000000 0.000000
vt 1.000000 0.000000
vt 1.000000 1.000000
vt 0.000000 1.000000
vt 0.000000 0.000000
vt 1.000000 0.000000
vt 1.000000 1.000000
vt 0.000000 1.000000
vt 0.000000 0.000000
vt 1.000000 0.000000
vt 1.000000 1.000000
vt 0.000000 1.000000
vt 0.000000 0.000000
vt 1.000000 0.000000
vt 1.000000 1.000000
vt 0.000000 1.000000
vt 0.000000 0.000000
vt 1.000000 0.000000
vt 1.000000 1.000000
vt 0.000000 1.000000
vt 0.000000 0.000000
vt 1.000000 0.000000
vt 1.000000 1.000000
vt 0.000000 1.000000
vt 0.000000 0.000000
vt 1.000000 0.000000
vt 1.000000 1.000000
vt 0.000000 1.000000
vt 0.000000 0.000000
vt 1.000000 0.000000
vt 1.000000 1.000000
vt 0.000000 1.000000
vt 0.000000 0.000000
vt 1.000000 0.000000
vt 1.000000 1.000000
vt 0.000000 1.000000
vt 0.000000 0.000000
vt 1.000000 0.000000
vt 1.000000 1.000000
vt 0.000000 1.000000
vt 0.000000 0.000000
vt 1.000000 0.000000
vt 1.000000 1.000000
vt 0.000000 1.000000
vt 0.000000 0.000000
vt 1.000000 0.000000
vt 1.000000 1.000000
vt 0.000000 1.000000
vt 0.000000 0.000000
vt 1.000000 0.000000
vt 1.000000 1.000000
vt 0.000000 1.000000
vt 0.000000 0.000000
vt 1.000000 0.000000
vt 1.000000 1.000000
vt 0.000000 1.000000
vt 0.000000 0.000000
vt 1.000000 0.000000
vt 1.000000 1.000000
vt 0.000000 1.000000
vt 0.000000 0.000000
vt 1.000000 0.000000
vt 1.000000 1.000000
vt 0.000000 1.000000
vt 0.000000 0.000000
vt 1.000000 0.000000
vt 1.000000 1.000000
vt 0.000000 1.000000
vt 0.000000 0.000000
vt 1.000000 0.000000
vt 1.000000 1.000000
vt 0.000000 1.000000
vt 0.000000 0.000000
vt 1.000000 0.000000
vt 1.000000 1.000000
vt 0.000000 1.000000
vt 0.000000 0.000000
vt 1.000000 0.000000
vt 1.000000 1.000000
vt 0.000000 1.000000
vt 0.000000 0.000000
vt 1.000000 0.000000
vt 1.000000 1.000000
vt 0.000000 1.000000
vt 0.000000 0.000000
vt 1.000000 0.000000
vt 1.000000 1.000000
vt 0.000000 1.000000
vt 0.000000 0.000000
vt 1.000000 0.000000
vt 1.000000 1.000000
vt 0.000000 1.000000
vt 0.000000 0.000000
vt 1.000000 0.000000
vt 1.000000 1.000000
vt 0.000000 1.000000
vt 0.000000 0.000000
vt 1.000000 0.000000
vt 1.000000 1.000000
vt 0.000000 1.000000
vt 0.000000 0.000000
vt 1.000000 0.000000
vt 1.000000 1.000000
vt 0.000000 1.000000
vt 0.000000 0.000000
vt 1.000000 0.000000
vt 1.000000 1.000000
vt 0.000000 1.000000
vt 0.000000 0.000000
vt 1.000000 0.000000
vt 1.000000 1.000000
vt 0.000000 1.000000
vt 0.000000 0.000000
vt 1.000000 0.000000
vt 1.000000 1.000000
vt 0.000000 1.000000
vt 0.000000 0.000000
vt 1.000000 0.000000
vt 1.000000 1.000000
vt 0.000000 1.000000
vt 0.000000 0.000000
vt 1.000000 0.000000
vt 1.000000 1.000000
vt 0.000000 1.000000
vt 0.000000 0.000000
vt 1.000000 0.000000
vt 1.000000 1.000000
vt 0.000000 1.000000
vt 0.000000 0.000000
vt 1.000000 0.000000
vt 1.000000 1.000000
vt 0.000000 1.000000
vt 0.000000 0.000000
vt 1.000000 0.000000
vt 1.000000 1.000000
vt 0.000000 1.000000
vt 0.000000 0.000000
vt 1.000000 0.000000
vt 1.000000 1.000000
vt 0.000000 1.000000
vt 0.000000 0.000000
vt 1.000000 0.000000
vt 1.000000 1.000000
vt 0.000000 1.000000
vn 0.0000 0.0000 1.0000
vn 0.0000 0.0000 -1.0000
vn -0.5437 0.0000 -0.8392
vn 0.5665 -0.0000 -0.8241
vn 0.5437 0.0000 0.8392
vn -0.5665 0.0000 0.8241
vn 1.0000 0.0000 -0.0000
vn -1.0000 0.0000 0.0000
usemtl 0022.006
s 1
f 2/1/1 1/2/1 3/3/1 4/4/1
f 6/5/1 5/6/1 7/7/1 8/8/1
f 10/9/1 9/10/1 11/11/1 12/12/1
f 48/13/2 47/14/2 60/15/2 59/16/2
f 14/17/2 13/18/2 15/19/2 16/20/2
f 52/21/2 51/22/2 64/23/2 63/24/2
f 18/25/2 17/26/2 19/27/2 20/28/2
f 22/29/1 21/30/1 23/31/1 24/32/1
f 26/33/2 25/34/2 27/35/2 28/36/2
f 30/37/1 29/38/1 31/39/1 32/40/1
f 34/41/1 33/42/1 35/43/1 36/44/1
f 44/45/3 43/46/3 40/47/3 39/48/3
f 41/49/4 38/50/4 37/51/4 42/52/4
f 54/53/1 53/54/1 66/55/1 65/56/1
f 50/57/1 49/58/1 62/59/1 61/60/1
f 56/61/1 55/62/1 68/63/1 67/64/1
f 46/65/2 45/66/2 58/67/2 57/68/2
f 74/69/1 73/70/1 86/71/1 85/72/1
f 78/73/1 77/74/1 90/75/1 89/76/1
f 80/77/1 79/78/1 92/79/1 91/80/1
f 70/81/2 69/82/2 82/83/2 81/84/2
f 76/85/2 75/86/2 88/87/2 87/88/2
f 72/89/2 71/90/2 84/91/2 83/92/2
usemtl 0022.007
f 95/93/2 94/94/2 96/95/2 97/96/2
f 99/97/2 98/98/2 100/99/2 101/100/2
f 103/101/2 102/102/2 104/103/2 105/104/2
f 141/105/1 140/106/1 153/107/1 152/108/1
f 107/109/1 106/110/1 108/111/1 109/112/1
f 145/113/1 144/114/1 157/115/1 156/116/1
f 111/117/1 110/118/1 112/119/1 113/120/1
f 115/121/2 114/122/2 116/123/2 117/124/2
f 119/125/1 118/126/1 120/127/1 121/128/1
f 123/129/2 122/130/2 124/131/2 125/132/2
f 127/133/2 126/134/2 128/135/2 129/136/2
f 137/137/5 136/138/5 133/139/5 132/140/5
f 134/141/6 131/142/6 130/143/6 135/144/6
f 147/145/2 146/146/2 159/147/2 158/148/2
f 143/149/2 142/150/2 155/151/2 154/152/2
f 149/153/2 148/154/2 161/155/2 160/156/2
f 139/157/1 138/158/1 151/159/1 150/160/1
f 167/161/2 166/162/2 179/163/2 178/164/2
f 171/165/2 170/166/2 183/167/2 182/168/2
f 173/169/2 172/170/2 185/171/2 184/172/2
f 163/173/1 162/174/1 175/175/1 174/176/1
f 169/177/1 168/178/1 181/179/1 180/180/1
f 165/181/1 164/182/1 177/183/1 176/184/1
usemtl 0022.002
f 187/185/7 186/186/7 188/187/7 189/188/7
f 191/189/7 190/190/7 192/191/7 193/192/7
f 195/193/7 194/194/7 196/195/7 197/196/7
f 199/197/7 198/198/7 200/199/7 201/200/7
f 203/201/7 202/202/7 204/203/7 205/204/7
f 207/205/7 206/206/7 208/207/7 209/208/7
f 211/209/7 210/210/7 212/211/7 213/212/7
f 215/213/7 214/214/7 216/215/7 217/216/7
f 225/217/7 224/218/7 233/219/7 232/220/7
f 221/221/7 220/222/7 229/223/7 228/224/7
f 223/225/7 222/226/7 231/227/7 230/228/7
f 219/229/7 218/230/7 227/231/7 226/232/7
f 241/233/7 240/234/7 249/235/7 248/236/7
f 237/237/7 236/238/7 245/239/7 244/240/7
f 239/241/7 238/242/7 247/243/7 246/244/7
f 235/245/7 234/246/7 243/247/7 242/248/7
usemtl 0022.003
f 251/249/8 250/250/8 252/251/8 253/252/8
f 255/253/8 254/254/8 256/255/8 257/256/8
f 259/257/8 258/258/8 260/259/8 261/260/8
f 263/261/8 262/262/8 264/263/8 265/264/8
f 267/265/8 266/266/8 268/267/8 269/268/8
f 271/269/8 270/270/8 272/271/8 273/272/8
f 275/273/8 274/274/8 276/275/8 277/276/8
f 279/277/8 278/278/8 280/279/8 281/280/8
f 289/281/8 288/282/8 297/283/8 296/284/8
f 285/285/8 284/286/8 293/287/8 292/288/8
f 287/289/8 286/290/8 295/291/8 294/292/8
f 283/293/8 282/294/8 291/295/8 290/296/8
f 305/297/8 304/298/8 313/299/8 312/300/8
f 301/301/8 300/302/8 309/303/8 308/304/8
f 303/305/8 302/306/8 311/307/8 310/308/8
f 299/309/8 298/310/8 307/311/8 306/312/8
