# Blender v3.1.2 OBJ File: 'scena.blend'
# www.blender.org
mtllib skybox.mtl
o Cube_Cube.106
v -128.479202 61.726547 130.768143
v -128.479202 63.726547 130.768143
v -128.479202 61.726547 -131.891464
v -128.479202 63.726547 -131.891464
v 134.826340 61.726547 130.768143
v 134.826340 63.726547 130.768143
v 134.826340 61.726547 -131.891464
v 134.826340 63.726547 -131.891464
v -129.640137 61.538479 -131.627975
v -129.640137 63.440956 -132.244888
v -270.595428 19.222656 -270.124969
v -270.595428 21.125130 -270.741882
v 135.987274 61.538479 -131.627975
v 135.987274 63.440956 -132.244888
v 255.085571 20.567120 -269.364075
v 255.085571 22.469597 -269.980957
v -272.976013 18.657761 248.273361
v -272.976013 20.533142 248.968277
v -129.064865 62.314178 128.297699
v -129.064865 64.189560 128.992615
v 259.417053 18.657761 248.273361
v 258.971008 20.533142 248.968277
v 135.412064 62.314178 128.297699
v 135.412064 64.189560 128.992615
v 135.145081 62.408783 132.762985
v 135.672928 64.337868 132.762985
v 135.145081 62.408783 -133.886322
v 135.672928 64.337868 -133.886322
v 256.372498 20.125038 245.774323
v 256.900360 22.054127 245.774323
v 256.372498 19.378117 -271.579529
v 256.900360 21.307205 -271.579529
v -270.348938 19.218109 246.932770
v -270.849487 21.154449 246.932770
v -270.348938 19.218109 -271.874969
v -270.849487 21.154449 -271.874969
v -128.245880 61.876850 131.405380
v -128.746445 63.813194 131.405380
v -128.245880 61.876850 -132.528687
v -128.746445 63.813194 -132.528687
vt 0.375000 0.000000
vt 0.625000 0.000000
vt 0.625000 0.250000
vt 0.375000 0.250000
vt 0.625000 0.500000
vt 0.375000 0.500000
vt 0.625000 0.750000
vt 0.375000 0.750000
vt 0.625000 1.000000
vt 0.375000 1.000000
vt 0.125000 0.500000
vt 0.125000 0.750000
vt 0.875000 0.500000
vt 0.875000 0.750000
vt 0.375000 0.000000
vt 0.625000 0.000000
vt 0.625000 0.250000
vt 0.375000 0.250000
vt 0.625000 0.500000
vt 0.375000 0.500000
vt 0.625000 0.750000
vt 0.375000 0.750000
vt 0.625000 1.000000
vt 0.375000 1.000000
vt 0.125000 0.500000
vt 0.125000 0.750000
vt 0.875000 0.500000
vt 0.875000 0.750000
vt 0.375000 0.000000
vt 0.625000 0.000000
vt 0.625000 0.250000
vt 0.375000 0.250000
vt 0.625000 0.500000
vt 0.375000 0.500000
vt 0.625000 0.750000
vt 0.375000 0.750000
vt 0.625000 1.000000
vt 0.375000 1.000000
vt 0.125000 0.500000
vt 0.125000 0.750000
vt 0.875000 0.500000
vt 0.875000 0.750000
vt 0.375000 0.000000
vt 0.625000 0.000000
vt 0.625000 0.250000
vt 0.375000 0.250000
vt 0.625000 0.500000
vt 0.375000 0.500000
vt 0.625000 0.750000
vt 0.375000 0.750000
vt 0.625000 1.000000
vt 0.375000 1.000000
vt 0.125000 0.500000
vt 0.125000 0.750000
vt 0.875000 0.500000
vt 0.875000 0.750000
vt 0.375000 0.000000
vt 0.625000 0.000000
vt 0.625000 0.250000
vt 0.375000 0.250000
vt 0.625000 0.500000
vt 0.375000 0.500000
vt 0.625000 0.750000
vt 0.375000 0.750000
vt 0.625000 1.000000
vt 0.375000 1.000000
vt 0.125000 0.500000
vt 0.125000 0.750000
vt 0.875000 0.500000
vt 0.875000 0.750000
vn -1.0000 0.0000 0.0000
vn 0.0000 0.0000 -1.0000
vn 1.0000 0.0000 0.0000
vn 0.0000 0.0000 1.0000
vn 0.0000 -1.0000 0.0000
vn 0.0000 1.0000 0.0000
vn -0.7165 0.2152 0.6635
vn 0.0022 -0.3084 -0.9512
vn 0.7698 0.1969 0.6071
vn 0.0000 0.3085 0.9512
vn 0.0013 -0.9575 0.2886
vn -0.0013 0.9575 -0.2886
vn -0.6636 0.2599 -0.7015
vn 0.0000 0.3475 -0.9377
vn 0.7154 0.3160 -0.6231
vn 0.0000 -0.3475 0.9377
vn 0.0000 -0.9397 -0.3419
vn 0.0000 0.9397 0.3419
vn -0.9645 0.2639 0.0000
vn -0.7057 0.1931 -0.6817
vn 0.9645 -0.2639 0.0004
vn -0.6381 0.1746 0.7499
vn -0.3318 -0.9433 0.0009
vn 0.3318 0.9433 -0.0009
vn -0.9682 -0.2503 0.0000
vn 0.6631 0.1714 -0.7287
vn 0.9682 0.2503 0.0000
vn 0.5951 0.1538 0.7888
vn 0.2875 -0.9578 0.0000
vn -0.2875 0.9578 0.0000
usemtl None
s off
f 1/1/1 2/2/1 4/3/1 3/4/1
f 3/4/2 4/3/2 8/5/2 7/6/2
f 7/6/3 8/5/3 6/7/3 5/8/3
f 5/8/4 6/7/4 2/9/4 1/10/4
f 3/11/5 7/6/5 5/8/5 1/12/5
f 8/5/6 4/13/6 2/14/6 6/7/6
f 9/15/7 10/16/7 12/17/7 11/18/7
f 11/18/8 12/17/8 16/19/8 15/20/8
f 15/20/9 16/19/9 14/21/9 13/22/9
f 13/22/10 14/21/10 10/23/10 9/24/10
f 11/25/11 15/20/11 13/22/11 9/26/11
f 16/19/12 12/27/12 10/28/12 14/21/12
f 17/29/13 18/30/13 20/31/13 19/32/13
f 19/32/14 20/31/14 24/33/14 23/34/14
f 23/34/15 24/33/15 22/35/15 21/36/15
f 21/36/16 22/35/16 18/37/16 17/38/16
f 19/39/17 23/34/17 21/36/17 17/40/17
f 24/33/18 20/41/18 18/42/18 22/35/18
f 25/43/19 26/44/19 28/45/19 27/46/19
f 27/46/20 28/45/20 32/47/20 31/48/20
f 31/48/21 32/47/21 30/49/21 29/50/21
f 29/50/22 30/49/22 26/51/22 25/52/22
f 27/53/23 31/48/23 29/50/23 25/54/23
f 32/47/24 28/55/24 26/56/24 30/49/24
f 33/57/25 34/58/25 36/59/25 35/60/25
f 35/60/26 36/59/26 40/61/26 39/62/26
f 39/62/27 40/61/27 38/63/27 37/64/27
f 37/64/28 38/63/28 34/65/28 33/66/28
f 35/67/29 39/62/29 37/64/29 33/68/29
f 40/61/30 36/69/30 34/70/30 38/63/30
