# Blender v3.1.2 OBJ File: 'scena1.blend'
# www.blender.org
mtllib door2.mtl
o door2_Cube.003
v 23.630630 2.423363 14.216951
v 23.626625 2.684661 14.170112
v 23.614477 3.054191 13.837039
v 23.608185 3.106167 13.601517
v 23.599804 2.906178 13.166315
v 23.598993 2.684661 13.032893
v 23.632359 1.024360 14.216178
v 23.620953 2.906178 14.036703
v 23.603031 3.054191 13.365989
v 23.600723 2.423363 12.986037
v 23.604729 1.024360 12.986794
v 23.587612 1.030188 12.931038
v 23.587612 1.030188 14.265761
v -11.684061 2.423363 14.216951
v -11.688068 2.684661 14.170112
v -11.700212 3.054191 13.837039
v -11.706507 3.106167 13.601517
v -11.714886 2.906178 13.166315
v -11.715698 2.684661 13.032893
v -11.682333 1.024360 14.216178
v -11.693739 2.906178 14.036703
v -11.711660 3.054191 13.365989
v -11.713968 2.423363 12.986037
v -11.709963 1.024360 12.986794
v -11.727079 1.030188 12.931038
v -11.727079 1.030188 14.265761
v 5.964342 2.423363 14.274957
v 5.960336 2.684661 14.228117
v 5.948189 3.054191 13.895044
v 5.941895 3.106167 13.659522
v 5.933516 2.906178 13.224320
v 5.932704 2.684661 13.090899
v 5.966069 1.024360 14.274183
v 5.954664 2.906178 14.094709
v 5.936742 3.054191 13.423994
v 5.934434 2.423363 13.044043
v 5.938438 1.024360 13.044798
v 5.921323 1.030188 12.989043
v 5.921323 1.030188 14.323767
v -6.858236 2.423363 8.377575
v -6.905075 2.684661 8.381580
v -7.238148 3.054191 8.393728
v -7.473671 3.106167 8.400022
v -7.908873 2.906178 8.408401
v -8.042292 2.684661 8.409212
v -6.859009 1.024360 8.375847
v -7.038483 2.906178 8.387253
v -7.709198 3.054191 8.405174
v -8.089149 2.423363 8.407482
v -8.088394 1.024360 8.403478
v -8.144148 1.030188 8.420593
v -6.809425 1.030188 8.420593
v 28.488297 2.423363 8.377575
v 28.441456 2.684661 8.381580
v 28.108383 3.054191 8.393728
v 27.872862 3.106167 8.400022
v 27.437660 2.906178 8.408401
v 27.304237 2.684661 8.409212
v 28.487522 1.024360 8.375847
v 28.308048 2.906178 8.387253
v 27.637333 3.054191 8.405174
v 27.257381 2.423363 8.407482
v 27.258137 1.024360 8.403478
v 27.202381 1.030188 8.420593
v 28.537106 1.030188 8.420593
v 7.540226 2.423363 19.680702
v 7.587067 2.684661 19.676697
v 7.920139 3.054191 19.664549
v 8.155661 3.106167 19.658257
v 8.590862 2.906178 19.649878
v 8.724284 2.684661 19.649065
v 7.540999 1.024360 19.682430
v 7.720474 2.906178 19.671024
v 8.391190 3.054191 19.653103
v 8.771140 2.423363 19.650795
v 8.770385 1.024360 19.654800
v 8.826140 1.030188 19.637684
v 7.491417 1.030188 19.637684
v -27.777765 2.423363 19.692783
v -27.730925 2.684661 19.688778
v -27.397852 3.054191 19.676630
v -27.162329 3.106167 19.670338
v -26.727125 2.906178 19.661957
v -26.593706 2.684661 19.661146
v -27.776991 1.024360 19.694511
v -27.597517 2.906178 19.683105
v -26.926802 3.054191 19.665184
v -26.546846 2.423363 19.662876
v -26.547606 1.024360 19.666882
v -26.491850 1.030188 19.649765
v -27.826574 1.030188 19.649765
vt 0.961900 0.797500
vt 0.853500 0.903900
vt 0.691300 0.975000
vt 0.500000 1.000000
vt 0.308600 0.975000
vt 0.146400 0.903900
vt 0.038100 0.797500
vt 0.000000 0.672000
vt 0.000600 0.000000
vt 0.999400 0.000000
vt 1.000000 0.672000
vt 0.961900 0.797500
vt 0.853500 0.903900
vt 0.691300 0.975000
vt 0.500000 1.000000
vt 0.308600 0.975000
vt 0.146400 0.903900
vt 0.038100 0.797500
vt 0.000000 0.672000
vt 0.000600 0.000000
vt 0.999400 0.000000
vt 1.000000 0.672000
vt 0.961900 0.797500
vt 0.853500 0.903900
vt 0.691300 0.975000
vt 0.500000 1.000000
vt 0.308600 0.975000
vt 0.146400 0.903900
vt 0.038100 0.797500
vt 0.000000 0.672000
vt 0.000600 0.000000
vt 0.999400 0.000000
vt 1.000000 0.672000
vt 0.961900 0.797500
vt 0.853500 0.903900
vt 0.691300 0.975000
vt 0.500000 1.000000
vt 0.308600 0.975000
vt 0.146400 0.903900
vt 0.038100 0.797500
vt 0.000000 0.672000
vt 0.000600 0.000000
vt 0.999400 0.000000
vt 1.000000 0.672000
vt 0.961900 0.797500
vt 0.853500 0.903900
vt 0.691300 0.975000
vt 0.500000 1.000000
vt 0.308600 0.975000
vt 0.146400 0.903900
vt 0.038100 0.797500
vt 0.000000 0.672000
vt 0.000600 0.000000
vt 0.999400 0.000000
vt 1.000000 0.672000
vt 0.961900 0.797500
vt 0.853500 0.903900
vt 0.691300 0.975000
vt 0.500000 1.000000
vt 0.308600 0.975000
vt 0.146400 0.903900
vt 0.038100 0.797500
vt 0.000000 0.672000
vt 0.000600 0.000000
vt 0.999400 0.000000
vt 1.000000 0.672000
vt 0.961900 0.797500
vt 0.853500 0.903900
vt 0.691300 0.975000
vt 0.500000 1.000000
vt 0.308600 0.975000
vt 0.146400 0.903900
vt 0.038100 0.797500
vt 0.000000 0.672000
vt 0.000600 0.000000
vt 0.999400 0.000000
vt 1.000000 0.672000
vn 0.9997 0.0045 -0.0236
vn -0.0236 0.0045 -0.9997
vn 0.0236 0.0045 0.9997
usemtl door2.015
s 1
f 6/1/1 5/2/1 9/3/1 4/4/1 3/5/1 8/6/1 2/7/1 1/8/1 7/9/1 11/10/1 10/11/1
usemtl door2.025
f 19/12/1 18/13/1 22/14/1 17/15/1 16/16/1 21/17/1 15/18/1 14/19/1 20/20/1 24/21/1 23/22/1
usemtl door2.036
f 32/23/1 31/24/1 35/25/1 30/26/1 29/27/1 34/28/1 28/29/1 27/30/1 33/31/1 37/32/1 36/33/1
usemtl door2.047
f 45/34/2 44/35/2 48/36/2 43/37/2 42/38/2 47/39/2 41/40/2 40/41/2 46/42/2 50/43/2 49/44/2
usemtl door2.058
f 58/45/2 57/46/2 61/47/2 56/48/2 55/49/2 60/50/2 54/51/2 53/52/2 59/53/2 63/54/2 62/55/2
usemtl door2.069
f 71/56/3 70/57/3 74/58/3 69/59/3 68/60/3 73/61/3 67/62/3 66/63/3 72/64/3 76/65/3 75/66/3
usemtl door2.080
f 84/67/3 83/68/3 87/69/3 82/70/3 81/71/3 86/72/3 80/73/3 79/74/3 85/75/3 89/76/3 88/77/3
l 12 13
l 25 26
l 38 39
l 51 52
l 64 65
l 77 78
l 90 91
