# Blender v3.1.2 OBJ File: 'scena1.blend'
# www.blender.org
mtllib window3_lit.mtl
o window3_lit_Cube.102
v 12.392090 4.362442 11.051338
v 12.392090 5.401313 11.051338
v 12.392090 5.499858 10.852257
v 12.392090 5.499858 10.625826
v 12.392090 5.398322 10.391698
v 12.392090 4.362442 10.391698
v 12.392090 4.362442 10.608341
v 12.392090 4.362442 10.871968
v 12.392090 7.828747 12.529378
v 12.392090 7.727823 12.302994
v 12.392090 6.621019 12.302994
v 12.392090 6.621019 12.511446
v 12.392090 6.621019 12.750987
v 12.392090 6.621019 12.962633
v 12.392090 7.727581 12.962633
v 12.392090 7.828747 12.733232
v 12.392090 6.621019 11.051338
v 12.392090 7.730202 11.051338
v 12.392090 7.828747 10.852257
v 12.392090 7.828747 10.625826
v 12.392090 7.727211 10.391698
v 12.392090 6.621019 10.391698
v 12.392090 6.621019 10.608343
v 12.392090 6.621019 10.871968
v 12.392090 5.499858 12.529378
v 12.392090 5.398934 12.302994
v 12.392090 4.362442 12.302994
v 12.392090 4.362442 12.511446
v 12.392090 4.362442 12.750987
v 12.392090 4.362442 12.962632
v 12.392090 5.398693 12.962632
v 12.392090 5.499858 12.733232
v 12.392090 5.499858 14.404612
v 12.392090 5.402163 14.214289
v 12.392090 4.362442 14.214289
v 12.392090 4.362442 14.384250
v 12.392090 4.362442 14.642235
v 12.392090 4.362442 14.815963
v 12.392090 5.401816 14.815963
v 12.392090 5.499858 14.622137
v 12.392090 7.828747 14.404610
v 12.392090 7.731051 14.214289
v 12.392090 6.621019 14.214289
v 12.392090 6.621019 14.384248
v 12.392090 6.621019 14.642235
v 12.392090 6.621019 14.815963
v 12.392090 7.730706 14.815963
v 12.392090 7.828747 14.622137
v -22.922602 4.362442 11.051338
v -22.922602 5.401313 11.051338
v -22.922602 5.499858 10.852257
v -22.922602 5.499858 10.625826
v -22.922602 5.398322 10.391698
v -22.922602 4.362442 10.391698
v -22.922602 4.362442 10.608341
v -22.922602 4.362442 10.871968
v -22.922602 7.828747 12.529378
v -22.922602 7.727823 12.302994
v -22.922602 6.621019 12.302994
v -22.922602 6.621019 12.511446
v -22.922602 6.621019 12.750987
v -22.922602 6.621019 12.962633
v -22.922602 7.727581 12.962633
v -22.922602 7.828747 12.733232
v -22.922602 6.621019 11.051338
v -22.922602 7.730202 11.051338
v -22.922602 7.828747 10.852257
v -22.922602 7.828747 10.625826
v -22.922602 7.727211 10.391698
v -22.922602 6.621019 10.391698
v -22.922602 6.621019 10.608343
v -22.922602 6.621019 10.871968
v -22.922602 5.499858 12.529378
v -22.922602 5.398934 12.302994
v -22.922602 4.362442 12.302994
v -22.922602 4.362442 12.511446
v -22.922602 4.362442 12.750987
v -22.922602 4.362442 12.962632
v -22.922602 5.398693 12.962632
v -22.922602 5.499858 12.733232
v -22.922602 5.499858 14.404612
v -22.922602 5.402163 14.214289
v -22.922602 4.362442 14.214289
v -22.922602 4.362442 14.384250
v -22.922602 4.362442 14.642235
v -22.922602 4.362442 14.815963
v -22.922602 5.401816 14.815963
v -22.922602 5.499858 14.622137
v -22.922602 7.828747 14.404610
v -22.922602 7.731051 14.214289
v -22.922602 6.621019 14.214289
v -22.922602 6.621019 14.384248
v -22.922602 6.621019 14.642235
v -22.922602 6.621019 14.815963
v -22.922602 7.730706 14.815963
v -22.922602 7.828747 14.622137
v -5.274199 4.362442 11.109346
v -5.274199 5.401313 11.109346
v -5.274199 5.499858 10.910266
v -5.274199 5.499858 10.683834
v -5.274199 5.398322 10.449706
v -5.274199 4.362442 10.449706
v -5.274199 4.362442 10.666349
v -5.274199 4.362442 10.929977
v -5.274199 7.828747 12.587386
v -5.274199 7.727823 12.361003
v -5.274199 6.621019 12.361003
v -5.274199 6.621019 12.569455
v -5.274199 6.621019 12.808996
v -5.274199 6.621019 13.020641
v -5.274199 7.727581 13.020641
v -5.274199 7.828747 12.791242
v -5.274199 6.621019 11.109346
v -5.274199 7.730202 11.109346
v -5.274199 7.828747 10.910266
v -5.274199 7.828747 10.683834
v -5.274199 7.727211 10.449706
v -5.274199 6.621019 10.449706
v -5.274199 6.621019 10.666351
v -5.274199 6.621019 10.929977
v -5.274199 5.499858 12.587386
v -5.274199 5.398934 12.361003
v -5.274199 4.362442 12.361003
v -5.274199 4.362442 12.569455
v -5.274199 4.362442 12.808996
v -5.274199 4.362442 13.020641
v -5.274199 5.398693 13.020641
v -5.274199 5.499858 12.791242
v -5.274199 5.499858 14.462621
v -5.274199 5.402163 14.272297
v -5.274199 4.362442 14.272297
v -5.274199 4.362442 14.442259
v -5.274199 4.362442 14.700244
v -5.274199 4.362442 14.873972
v -5.274199 5.401816 14.873972
v -5.274199 5.499858 14.680146
v -5.274199 7.828747 14.462619
v -5.274199 7.731051 14.272297
v -5.274199 6.621019 14.272297
v -5.274199 6.621019 14.442257
v -5.274199 6.621019 14.700244
v -5.274199 6.621019 14.873972
v -5.274199 7.730706 14.873972
v -5.274199 7.828747 14.680146
v -10.023849 4.362442 19.616116
v -10.023849 5.401314 19.616116
v -10.222929 5.499859 19.616116
v -10.449362 5.499859 19.616116
v -10.683489 5.398322 19.616116
v -10.683489 4.362442 19.616116
v -10.466846 4.362442 19.616116
v -10.203218 4.362442 19.616116
v -8.545809 7.828747 19.616116
v -8.772194 7.727823 19.616116
v -8.772194 6.621019 19.616116
v -8.563740 6.621019 19.616116
v -8.324200 6.621019 19.616116
v -8.112555 6.621019 19.616116
v -8.112555 7.727581 19.616116
v -8.341953 7.828747 19.616116
v -10.023849 6.621019 19.616116
v -10.023849 7.730202 19.616116
v -10.222929 7.828747 19.616116
v -10.449362 7.828747 19.616116
v -10.683489 7.727211 19.616116
v -10.683489 6.621019 19.616116
v -10.466843 6.621019 19.616116
v -10.203218 6.621019 19.616116
v -8.545809 5.499859 19.616116
v -8.772194 5.398934 19.616116
v -8.772194 4.362442 19.616116
v -8.563740 4.362442 19.616116
v -8.324200 4.362442 19.616116
v -8.112555 4.362442 19.616116
v -8.112555 5.398693 19.616116
v -8.341953 5.499859 19.616116
v -6.670576 5.499858 19.616116
v -6.860899 5.402163 19.616116
v -6.860899 4.362442 19.616116
v -6.690937 4.362442 19.616116
v -6.432953 4.362442 19.616116
v -6.259224 4.362442 19.616116
v -6.259224 5.401817 19.616116
v -6.453049 5.499858 19.616116
v -6.670576 7.828747 19.616116
v -6.860899 7.731051 19.616116
v -6.860899 6.621019 19.616116
v -6.690939 6.621019 19.616116
v -6.432953 6.621019 19.616116
v -6.259224 6.621019 19.616116
v -6.259224 7.730706 19.616116
v -6.453049 7.828747 19.616116
v 25.322681 4.362442 19.616116
v 25.322681 5.401314 19.616116
v 25.123602 5.499859 19.616116
v 24.897169 5.499859 19.616116
v 24.663042 5.398322 19.616116
v 24.663042 4.362442 19.616116
v 24.879684 4.362442 19.616116
v 25.143312 4.362442 19.616116
v 26.800722 7.828747 19.616116
v 26.574339 7.727823 19.616116
v 26.574339 6.621019 19.616116
v 26.782791 6.621019 19.616116
v 27.022331 6.621019 19.616116
v 27.233978 6.621019 19.616116
v 27.233978 7.727581 19.616116
v 27.004578 7.828747 19.616116
v 25.322681 6.621019 19.616116
v 25.322681 7.730202 19.616116
v 25.123602 7.828747 19.616116
v 24.897171 7.828747 19.616116
v 24.663042 7.727211 19.616116
v 24.663042 6.621019 19.616116
v 24.879688 6.621019 19.616116
v 25.143312 6.621019 19.616116
v 26.800722 5.499859 19.616116
v 26.574339 5.398934 19.616116
v 26.574339 4.362442 19.616116
v 26.782791 4.362442 19.616116
v 27.022331 4.362442 19.616116
v 27.233976 4.362442 19.616116
v 27.233976 5.398693 19.616116
v 27.004578 5.499859 19.616116
v 28.675957 5.499858 19.616116
v 28.485634 5.402163 19.616116
v 28.485634 4.362442 19.616116
v 28.655594 4.362442 19.616116
v 28.913578 4.362442 19.616116
v 29.087307 4.362442 19.616116
v 29.087307 5.401817 19.616116
v 28.893482 5.499858 19.616116
v 28.675955 7.828747 19.616116
v 28.485634 7.731051 19.616116
v 28.485634 6.621019 19.616116
v 28.655592 6.621019 19.616116
v 28.913578 6.621019 19.616116
v 29.087307 6.621019 19.616116
v 29.087307 7.730706 19.616116
v 28.893482 7.828747 19.616116
v 10.705842 4.362442 8.442163
v 10.705842 5.401313 8.442163
v 10.904923 5.499858 8.442163
v 11.131354 5.499858 8.442163
v 11.365482 5.398322 8.442163
v 11.365482 4.362442 8.442163
v 11.148839 4.362442 8.442163
v 10.885211 4.362442 8.442163
v 9.227801 5.499858 8.442163
v 9.454185 5.398934 8.442163
v 9.454185 4.362442 8.442163
v 9.245733 4.362442 8.442163
v 9.006192 4.362442 8.442163
v 8.794547 4.362442 8.442163
v 8.794547 5.398693 8.442163
v 9.023947 5.499858 8.442163
v 7.352568 5.499858 8.442163
v 7.542892 5.402163 8.442163
v 7.542892 4.362442 8.442163
v 7.372930 4.362442 8.442162
v 7.114944 4.362442 8.442162
v 6.941217 4.362442 8.442162
v 6.941217 5.401817 8.442163
v 7.135042 5.499858 8.442163
v -26.090185 7.828747 8.454245
v -25.863806 7.727823 8.454245
v -25.863806 6.621019 8.454245
v -26.072256 6.621019 8.454245
v -26.311796 6.621019 8.454245
v -26.523443 6.621019 8.454245
v -26.523443 7.727581 8.454245
v -26.294043 7.828747 8.454245
v -24.612146 6.621019 8.454245
v -24.612146 7.730202 8.454245
v -24.413069 7.828747 8.454245
v -24.186636 7.828747 8.454245
v -23.952509 7.727211 8.454245
v -23.952509 6.621019 8.454245
v -24.169153 6.621019 8.454245
v -24.432775 6.621019 8.454245
v -26.090185 5.499858 8.454245
v -25.863806 5.398934 8.454245
v -25.863806 4.362442 8.454244
v -26.072256 4.362442 8.454244
v -26.311796 4.362442 8.454244
v -26.523443 4.362442 8.454244
v -26.523443 5.398693 8.454245
v -26.294043 5.499858 8.454245
vt 1.000000 0.000000
vt 1.000000 0.913400
vt 0.698200 1.000000
vt 0.354900 1.000000
vt 0.000000 0.910700
vt 0.000000 0.000000
vt 0.328400 0.000000
vt 0.728100 0.000000
vt 0.343200 1.000000
vt 0.000000 0.916400
vt 0.000000 0.000000
vt 0.316000 0.000000
vt 0.679100 0.000000
vt 1.000000 0.000000
vt 1.000000 0.916200
vt 0.652200 1.000000
vt 1.000000 0.000000
vt 1.000000 0.918400
vt 0.698200 1.000000
vt 0.354900 1.000000
vt 0.000000 0.915900
vt 0.000000 0.000000
vt 0.328400 0.000000
vt 0.728100 0.000000
vt 0.343200 1.000000
vt 0.000000 0.911300
vt 0.000000 0.000000
vt 0.316000 0.000000
vt 0.679100 0.000000
vt 1.000000 0.000000
vt 1.000000 0.911100
vt 0.652200 1.000000
vt 0.316300 1.000000
vt 0.000000 0.914100
vt 0.000000 0.000000
vt 0.282500 0.000000
vt 0.711300 0.000000
vt 1.000000 0.000000
vt 1.000000 0.913800
vt 0.677900 1.000000
vt 0.316300 1.000000
vt 0.000000 0.919100
vt 0.000000 0.000000
vt 0.282500 0.000000
vt 0.711300 0.000000
vt 1.000000 0.000000
vt 1.000000 0.918800
vt 0.677900 1.000000
vt 1.000000 0.000000
vt 1.000000 0.913400
vt 0.698200 1.000000
vt 0.354900 1.000000
vt 0.000000 0.910700
vt 0.000000 0.000000
vt 0.328400 0.000000
vt 0.728100 0.000000
vt 0.343200 1.000000
vt 0.000000 0.916400
vt 0.000000 0.000000
vt 0.316000 0.000000
vt 0.679100 0.000000
vt 1.000000 0.000000
vt 1.000000 0.916200
vt 0.652200 1.000000
vt 1.000000 0.000000
vt 1.000000 0.918400
vt 0.698200 1.000000
vt 0.354900 1.000000
vt 0.000000 0.915900
vt 0.000000 0.000000
vt 0.328400 0.000000
vt 0.728100 0.000000
vt 0.343200 1.000000
vt 0.000000 0.911300
vt 0.000000 0.000000
vt 0.316000 0.000000
vt 0.679100 0.000000
vt 1.000000 0.000000
vt 1.000000 0.911100
vt 0.652200 1.000000
vt 0.316300 1.000000
vt 0.000000 0.914100
vt 0.000000 0.000000
vt 0.282500 0.000000
vt 0.711300 0.000000
vt 1.000000 0.000000
vt 1.000000 0.913800
vt 0.677900 1.000000
vt 0.316300 1.000000
vt 0.000000 0.919100
vt 0.000000 0.000000
vt 0.282500 0.000000
vt 0.711300 0.000000
vt 1.000000 0.000000
vt 1.000000 0.918800
vt 0.677900 1.000000
vt 1.000000 0.000000
vt 1.000000 0.913400
vt 0.698200 1.000000
vt 0.354900 1.000000
vt 0.000000 0.910700
vt 0.000000 0.000000
vt 0.328400 0.000000
vt 0.728100 0.000000
vt 0.343200 1.000000
vt 0.000000 0.916400
vt 0.000000 0.000000
vt 0.316000 0.000000
vt 0.679100 0.000000
vt 1.000000 0.000000
vt 1.000000 0.916200
vt 0.652200 1.000000
vt 1.000000 0.000000
vt 1.000000 0.918400
vt 0.698200 1.000000
vt 0.354900 1.000000
vt 0.000000 0.915900
vt 0.000000 0.000000
vt 0.328400 0.000000
vt 0.728100 0.000000
vt 0.343200 1.000000
vt 0.000000 0.911300
vt 0.000000 0.000000
vt 0.316000 0.000000
vt 0.679100 0.000000
vt 1.000000 0.000000
vt 1.000000 0.911100
vt 0.652200 1.000000
vt 0.316300 1.000000
vt 0.000000 0.914100
vt 0.000000 0.000000
vt 0.282500 0.000000
vt 0.711300 0.000000
vt 1.000000 0.000000
vt 1.000000 0.913800
vt 0.677900 1.000000
vt 0.316300 1.000000
vt 0.000000 0.919100
vt 0.000000 0.000000
vt 0.282500 0.000000
vt 0.711300 0.000000
vt 1.000000 0.000000
vt 1.000000 0.918800
vt 0.677900 1.000000
vt 1.000000 0.000000
vt 1.000000 0.913400
vt 0.698200 1.000000
vt 0.354900 1.000000
vt 0.000000 0.910700
vt 0.000000 0.000000
vt 0.328400 0.000000
vt 0.728100 0.000000
vt 0.343200 1.000000
vt 0.000000 0.916400
vt 0.000000 0.000000
vt 0.316000 0.000000
vt 0.679100 0.000000
vt 1.000000 0.000000
vt 1.000000 0.916200
vt 0.652200 1.000000
vt 1.000000 0.000000
vt 1.000000 0.918400
vt 0.698200 1.000000
vt 0.354900 1.000000
vt 0.000000 0.915900
vt 0.000000 0.000000
vt 0.328400 0.000000
vt 0.728100 0.000000
vt 0.343200 1.000000
vt 0.000000 0.911300
vt 0.000000 0.000000
vt 0.316000 0.000000
vt 0.679100 0.000000
vt 1.000000 0.000000
vt 1.000000 0.911100
vt 0.652200 1.000000
vt 0.316300 1.000000
vt 0.000000 0.914100
vt 0.000000 0.000000
vt 0.282500 0.000000
vt 0.711300 0.000000
vt 1.000000 0.000000
vt 1.000000 0.913800
vt 0.677900 1.000000
vt 0.316300 1.000000
vt 0.000000 0.919100
vt 0.000000 0.000000
vt 0.282500 0.000000
vt 0.711300 0.000000
vt 1.000000 0.000000
vt 1.000000 0.918800
vt 0.677900 1.000000
vt 1.000000 0.000000
vt 1.000000 0.913400
vt 0.698200 1.000000
vt 0.354900 1.000000
vt 0.000000 0.910700
vt 0.000000 0.000000
vt 0.328400 0.000000
vt 0.728100 0.000000
vt 0.343200 1.000000
vt 0.000000 0.916400
vt 0.000000 0.000000
vt 0.316000 0.000000
vt 0.679100 0.000000
vt 1.000000 0.000000
vt 1.000000 0.916200
vt 0.652200 1.000000
vt 1.000000 0.000000
vt 1.000000 0.918400
vt 0.698200 1.000000
vt 0.354900 1.000000
vt 0.000000 0.915900
vt 0.000000 0.000000
vt 0.328400 0.000000
vt 0.728100 0.000000
vt 0.343200 1.000000
vt 0.000000 0.911300
vt 0.000000 0.000000
vt 0.316000 0.000000
vt 0.679100 0.000000
vt 1.000000 0.000000
vt 1.000000 0.911100
vt 0.652200 1.000000
vt 0.316300 1.000000
vt 0.000000 0.914100
vt 0.000000 0.000000
vt 0.282500 0.000000
vt 0.711300 0.000000
vt 1.000000 0.000000
vt 1.000000 0.913800
vt 0.677900 1.000000
vt 0.316300 1.000000
vt 0.000000 0.919100
vt 0.000000 0.000000
vt 0.282500 0.000000
vt 0.711300 0.000000
vt 1.000000 0.000000
vt 1.000000 0.918800
vt 0.677900 1.000000
vt 1.000000 0.000000
vt 1.000000 0.913400
vt 0.698200 1.000000
vt 0.354900 1.000000
vt 0.000000 0.910700
vt 0.000000 0.000000
vt 0.328400 0.000000
vt 0.728100 0.000000
vt 0.343200 1.000000
vt 0.000000 0.911300
vt 0.000000 0.000000
vt 0.316000 0.000000
vt 0.679100 0.000000
vt 1.000000 0.000000
vt 1.000000 0.911100
vt 0.652200 1.000000
vt 0.316300 1.000000
vt 0.000000 0.914100
vt 0.000000 0.000000
vt 0.282500 0.000000
vt 0.711300 0.000000
vt 1.000000 0.000000
vt 1.000000 0.913800
vt 0.677900 1.000000
vt 0.343200 1.000000
vt 0.000000 0.916400
vt 0.000000 0.000000
vt 0.316000 0.000000
vt 0.679100 0.000000
vt 1.000000 0.000000
vt 1.000000 0.916200
vt 0.652200 1.000000
vt 1.000000 0.000000
vt 1.000000 0.918400
vt 0.698200 1.000000
vt 0.354900 1.000000
vt 0.000000 0.915900
vt 0.000000 0.000000
vt 0.328400 0.000000
vt 0.728100 0.000000
vt 0.343200 1.000000
vt 0.000000 0.911300
vt 0.000000 0.000000
vt 0.316000 0.000000
vt 0.679100 0.000000
vt 1.000000 0.000000
vt 1.000000 0.911100
vt 0.652200 1.000000
vn -1.0000 0.0000 0.0000
vn 0.0000 0.0000 1.0000
vn 0.0000 0.0000 -1.0000
usemtl window3.035
s 1
f 1/1/1 2/2/1 3/3/1 4/4/1 5/5/1 6/6/1 7/7/1 8/8/1
f 9/9/1 10/10/1 11/11/1 12/12/1 13/13/1 14/14/1 15/15/1 16/16/1
f 17/17/1 18/18/1 19/19/1 20/20/1 21/21/1 22/22/1 23/23/1 24/24/1
f 25/25/1 26/26/1 27/27/1 28/28/1 29/29/1 30/30/1 31/31/1 32/32/1
f 33/33/1 34/34/1 35/35/1 36/36/1 37/37/1 38/38/1 39/39/1 40/40/1
f 41/41/1 42/42/1 43/43/1 44/44/1 45/45/1 46/46/1 47/47/1 48/48/1
usemtl window3.036
f 49/49/1 50/50/1 51/51/1 52/52/1 53/53/1 54/54/1 55/55/1 56/56/1
f 57/57/1 58/58/1 59/59/1 60/60/1 61/61/1 62/62/1 63/63/1 64/64/1
f 65/65/1 66/66/1 67/67/1 68/68/1 69/69/1 70/70/1 71/71/1 72/72/1
f 73/73/1 74/74/1 75/75/1 76/76/1 77/77/1 78/78/1 79/79/1 80/80/1
f 81/81/1 82/82/1 83/83/1 84/84/1 85/85/1 86/86/1 87/87/1 88/88/1
f 89/89/1 90/90/1 91/91/1 92/92/1 93/93/1 94/94/1 95/95/1 96/96/1
usemtl window3.037
f 97/97/1 98/98/1 99/99/1 100/100/1 101/101/1 102/102/1 103/103/1 104/104/1
f 105/105/1 106/106/1 107/107/1 108/108/1 109/109/1 110/110/1 111/111/1 112/112/1
f 113/113/1 114/114/1 115/115/1 116/116/1 117/117/1 118/118/1 119/119/1 120/120/1
f 121/121/1 122/122/1 123/123/1 124/124/1 125/125/1 126/126/1 127/127/1 128/128/1
f 129/129/1 130/130/1 131/131/1 132/132/1 133/133/1 134/134/1 135/135/1 136/136/1
f 137/137/1 138/138/1 139/139/1 140/140/1 141/141/1 142/142/1 143/143/1 144/144/1
usemtl window3.038
f 145/145/2 146/146/2 147/147/2 148/148/2 149/149/2 150/150/2 151/151/2 152/152/2
f 153/153/2 154/154/2 155/155/2 156/156/2 157/157/2 158/158/2 159/159/2 160/160/2
f 161/161/2 162/162/2 163/163/2 164/164/2 165/165/2 166/166/2 167/167/2 168/168/2
f 169/169/2 170/170/2 171/171/2 172/172/2 173/173/2 174/174/2 175/175/2 176/176/2
f 177/177/2 178/178/2 179/179/2 180/180/2 181/181/2 182/182/2 183/183/2 184/184/2
f 185/185/2 186/186/2 187/187/2 188/188/2 189/189/2 190/190/2 191/191/2 192/192/2
usemtl window3.039
f 193/193/2 194/194/2 195/195/2 196/196/2 197/197/2 198/198/2 199/199/2 200/200/2
f 201/201/2 202/202/2 203/203/2 204/204/2 205/205/2 206/206/2 207/207/2 208/208/2
f 209/209/2 210/210/2 211/211/2 212/212/2 213/213/2 214/214/2 215/215/2 216/216/2
f 217/217/2 218/218/2 219/219/2 220/220/2 221/221/2 222/222/2 223/223/2 224/224/2
f 225/225/2 226/226/2 227/227/2 228/228/2 229/229/2 230/230/2 231/231/2 232/232/2
f 233/233/2 234/234/2 235/235/2 236/236/2 237/237/2 238/238/2 239/239/2 240/240/2
usemtl window3.040
f 241/241/3 242/242/3 243/243/3 244/244/3 245/245/3 246/246/3 247/247/3 248/248/3
f 249/249/3 250/250/3 251/251/3 252/252/3 253/253/3 254/254/3 255/255/3 256/256/3
f 257/257/3 258/258/3 259/259/3 260/260/3 261/261/3 262/262/3 263/263/3 264/264/3
usemtl window3.041
f 265/265/3 266/266/3 267/267/3 268/268/3 269/269/3 270/270/3 271/271/3 272/272/3
f 273/273/3 274/274/3 275/275/3 276/276/3 277/277/3 278/278/3 279/279/3 280/280/3
f 281/281/3 282/282/3 283/283/3 284/284/3 285/285/3 286/286/3 287/287/3 288/288/3
