# Blender v3.1.2 OBJ File: 'scena1.blend'
# www.blender.org
mtllib window1.mtl
o window1_Cube.001
v 13.939632 1.141473 15.407948
v 13.939632 2.409322 15.407948
v 12.587107 2.409322 15.407947
v 12.587107 1.141473 15.407948
v 12.327936 1.141474 10.058884
v 12.327936 1.141473 10.460320
v 12.327936 1.141473 11.068743
v 12.327936 1.141473 11.384150
v 12.327936 2.409323 11.384150
v 12.327936 2.409323 11.068743
v 12.327936 2.409323 10.460320
v 12.327936 2.409323 10.058884
v 12.327936 1.141473 15.148776
v 12.327936 2.409322 15.148776
v 12.327936 2.409322 14.820992
v 12.327936 2.409322 14.200192
v 12.327936 2.409322 13.881477
v 12.327936 1.141473 13.881477
v 12.327936 1.141473 14.200192
v 12.327936 1.141473 14.820992
v 13.939634 1.141474 9.799713
v 12.587109 1.141474 9.799713
v 12.587107 2.409323 9.799713
v 13.939634 2.409323 9.799713
v -21.375059 1.141473 15.407948
v -21.375059 2.409323 15.407948
v -22.727587 2.409323 15.407947
v -22.727587 1.141473 15.407948
v -22.986753 1.141474 10.058884
v -22.986753 1.141474 10.460320
v -22.986753 1.141474 11.068743
v -22.986753 1.141474 11.384150
v -22.986753 2.409323 11.384150
v -22.986753 2.409323 11.068743
v -22.986753 2.409323 10.460320
v -22.986753 2.409323 10.058884
v -22.986753 1.141473 15.148776
v -22.986753 2.409323 15.148776
v -22.986753 2.409323 14.820992
v -22.986753 2.409323 14.200192
v -22.986753 2.409323 13.881477
v -22.986753 1.141473 13.881477
v -22.986753 1.141473 14.200192
v -22.986753 1.141473 14.820992
v -21.375059 1.141474 9.799713
v -22.727583 1.141474 9.799713
v -22.727587 2.409323 9.799713
v -21.375059 2.409323 9.799713
v -3.726658 1.141473 15.465957
v -3.726658 2.409323 15.465957
v -5.079182 2.409323 15.465956
v -5.079182 1.141473 15.465957
v -5.338354 1.141474 10.116893
v -5.338352 1.141474 10.518328
v -5.338352 1.141474 11.126751
v -5.338352 1.141474 11.442158
v -5.338352 2.409323 11.442158
v -5.338352 2.409323 11.126751
v -5.338352 2.409323 10.518328
v -5.338354 2.409323 10.116893
v -5.338352 1.141473 15.206785
v -5.338352 2.409323 15.206785
v -5.338352 2.409323 14.879000
v -5.338352 2.409323 14.258202
v -5.338352 2.409323 13.939486
v -5.338352 1.141473 13.939486
v -5.338352 1.141473 14.258202
v -5.338352 1.141473 14.879000
v -3.726658 1.141474 9.857721
v -5.079182 1.141474 9.857722
v -5.079184 2.409323 9.857722
v -3.726658 2.409323 9.857721
v -5.667238 1.141473 18.068573
v -5.667238 2.409323 18.068573
v -5.667240 2.409323 19.421099
v -5.667238 1.141473 19.421099
v -11.016304 1.141474 19.680269
v -10.614868 1.141474 19.680269
v -10.006443 1.141474 19.680269
v -9.691038 1.141474 19.680269
v -9.691038 2.409323 19.680269
v -10.006443 2.409323 19.680269
v -10.614868 2.409323 19.680269
v -11.016304 2.409323 19.680269
v -5.926411 1.141473 19.680269
v -5.926411 2.409323 19.680269
v -6.254196 2.409323 19.680269
v -6.874994 2.409323 19.680269
v -7.193710 2.409323 19.680269
v -7.193710 1.141473 19.680269
v -6.874994 1.141473 19.680269
v -6.254196 1.141473 19.680269
v -11.275473 1.141474 18.068571
v -11.275473 1.141474 19.421097
v -11.275473 2.409323 19.421099
v -11.275473 2.409323 18.068571
v 29.679293 1.141473 18.068573
v 29.679293 2.409323 18.068573
v 29.679291 2.409323 19.421099
v 29.679293 1.141473 19.421099
v 24.330229 1.141474 19.680269
v 24.731663 1.141474 19.680269
v 25.340088 1.141474 19.680269
v 25.655495 1.141474 19.680269
v 25.655495 2.409323 19.680269
v 25.340088 2.409323 19.680269
v 24.731663 2.409323 19.680269
v 24.330229 2.409323 19.680269
v 29.420120 1.141473 19.680269
v 29.420120 2.409323 19.680269
v 29.092335 2.409323 19.680269
v 28.471539 2.409323 19.680269
v 28.152821 2.409323 19.680269
v 28.152821 1.141473 19.680269
v 28.471537 1.141473 19.680269
v 29.092335 1.141473 19.680269
v 24.071058 1.141474 18.068571
v 24.071058 1.141474 19.421097
v 24.071058 2.409323 19.421099
v 24.071058 2.409323 18.068571
v 6.349231 1.141473 9.989704
v 6.349231 2.409323 9.989704
v 6.349233 2.409323 8.637178
v 6.349231 1.141473 8.637178
v 11.698296 1.141474 8.378009
v 11.296861 1.141474 8.378009
v 10.688437 1.141474 8.378009
v 10.373031 1.141474 8.378009
v 10.373031 2.409323 8.378009
v 10.688437 2.409323 8.378009
v 11.296861 2.409323 8.378009
v 11.698296 2.409323 8.378009
v 6.608403 1.141473 8.378008
v 6.608403 2.409323 8.378008
v 6.936190 2.409323 8.378008
v 7.556988 2.409323 8.378009
v 7.875703 2.409323 8.378009
v 7.875703 1.141473 8.378009
v 7.556988 1.141473 8.378009
v 6.936190 1.141473 8.378008
v 11.957466 1.141474 9.989707
v 11.957466 1.141474 8.637181
v 11.957466 2.409323 8.637179
v 11.957466 2.409323 9.989707
v -28.968760 1.141473 10.001785
v -28.968760 2.409323 10.001785
v -28.968756 2.409323 8.649260
v -28.968760 1.141473 8.649260
v -23.619696 1.141474 8.390089
v -24.021128 1.141474 8.390089
v -24.629553 1.141474 8.390089
v -24.944960 1.141474 8.390089
v -24.944960 2.409323 8.390089
v -24.629553 2.409323 8.390089
v -24.021128 2.409323 8.390089
v -23.619696 2.409323 8.390089
v -28.709589 1.141473 8.390089
v -28.709589 2.409323 8.390089
v -28.381804 2.409323 8.390089
v -27.761003 2.409323 8.390089
v -27.442286 2.409323 8.390089
v -27.442286 1.141473 8.390089
v -27.761003 1.141473 8.390089
v -28.381804 1.141473 8.390089
v -23.360525 1.141474 10.001787
v -23.360525 1.141474 8.649261
v -23.360525 2.409323 8.649260
v -23.360525 2.409323 10.001787
vt 0.000000 0.000000
vt 1.000000 0.000000
vt 1.000000 1.000000
vt 0.000000 1.000000
vt 0.000000 0.000000
vt 0.302900 0.000000
vt 0.762000 0.000000
vt 1.000000 0.000000
vt 1.000000 1.000000
vt 0.762000 1.000000
vt 0.302900 1.000000
vt 0.000000 1.000000
vt 1.000000 0.000000
vt 1.000000 1.000000
vt 0.741400 1.000000
vt 0.251500 1.000000
vt 0.000000 1.000000
vt 0.000000 0.000000
vt 0.251500 0.000000
vt 0.741400 0.000000
vt 0.000000 0.000000
vt 1.000000 0.000000
vt 1.000000 1.000000
vt 0.000000 1.000000
vt 0.000000 0.000000
vt 1.000000 0.000000
vt 1.000000 1.000000
vt 0.000000 1.000000
vt 0.000000 0.000000
vt 0.302900 0.000000
vt 0.762000 0.000000
vt 1.000000 0.000000
vt 1.000000 1.000000
vt 0.762000 1.000000
vt 0.302900 1.000000
vt 0.000000 1.000000
vt 1.000000 0.000000
vt 1.000000 1.000000
vt 0.741400 1.000000
vt 0.251500 1.000000
vt 0.000000 1.000000
vt 0.000000 0.000000
vt 0.251500 0.000000
vt 0.741400 0.000000
vt 0.000000 0.000000
vt 1.000000 0.000000
vt 1.000000 1.000000
vt 0.000000 1.000000
vt 0.000000 0.000000
vt 1.000000 0.000000
vt 1.000000 1.000000
vt 0.000000 1.000000
vt 0.000000 0.000000
vt 0.302900 0.000000
vt 0.762000 0.000000
vt 1.000000 0.000000
vt 1.000000 1.000000
vt 0.762000 1.000000
vt 0.302900 1.000000
vt 0.000000 1.000000
vt 1.000000 0.000000
vt 1.000000 1.000000
vt 0.741400 1.000000
vt 0.251500 1.000000
vt 0.000000 1.000000
vt 0.000000 0.000000
vt 0.251500 0.000000
vt 0.741400 0.000000
vt 0.000000 0.000000
vt 1.000000 0.000000
vt 1.000000 1.000000
vt 0.000000 1.000000
vt 0.000000 0.000000
vt 1.000000 0.000000
vt 1.000000 1.000000
vt 0.000000 1.000000
vt 0.000000 0.000000
vt 0.302900 0.000000
vt 0.762000 0.000000
vt 1.000000 0.000000
vt 1.000000 1.000000
vt 0.762000 1.000000
vt 0.302900 1.000000
vt 0.000000 1.000000
vt 1.000000 0.000000
vt 1.000000 1.000000
vt 0.741400 1.000000
vt 0.251500 1.000000
vt 0.000000 1.000000
vt 0.000000 0.000000
vt 0.251500 0.000000
vt 0.741400 0.000000
vt 0.000000 0.000000
vt 1.000000 0.000000
vt 1.000000 1.000000
vt 0.000000 1.000000
vt 0.000000 0.000000
vt 1.000000 0.000000
vt 1.000000 1.000000
vt 0.000000 1.000000
vt 0.000000 0.000000
vt 0.302900 0.000000
vt 0.762000 0.000000
vt 1.000000 0.000000
vt 1.000000 1.000000
vt 0.762000 1.000000
vt 0.302900 1.000000
vt 0.000000 1.000000
vt 1.000000 0.000000
vt 1.000000 1.000000
vt 0.741400 1.000000
vt 0.251500 1.000000
vt 0.000000 1.000000
vt 0.000000 0.000000
vt 0.251500 0.000000
vt 0.741400 0.000000
vt 0.000000 0.000000
vt 1.000000 0.000000
vt 1.000000 1.000000
vt 0.000000 1.000000
vt 0.000000 0.000000
vt 1.000000 0.000000
vt 1.000000 1.000000
vt 0.000000 1.000000
vt 0.000000 0.000000
vt 0.302900 0.000000
vt 0.762000 0.000000
vt 1.000000 0.000000
vt 1.000000 1.000000
vt 0.762000 1.000000
vt 0.302900 1.000000
vt 0.000000 1.000000
vt 1.000000 0.000000
vt 1.000000 1.000000
vt 0.741400 1.000000
vt 0.251500 1.000000
vt 0.000000 1.000000
vt 0.000000 0.000000
vt 0.251500 0.000000
vt 0.741400 0.000000
vt 0.000000 0.000000
vt 1.000000 0.000000
vt 1.000000 1.000000
vt 0.000000 1.000000
vt 0.000000 0.000000
vt 1.000000 0.000000
vt 1.000000 1.000000
vt 0.000000 1.000000
vt 0.000000 0.000000
vt 0.302900 0.000000
vt 0.762000 0.000000
vt 1.000000 0.000000
vt 1.000000 1.000000
vt 0.762000 1.000000
vt 0.302900 1.000000
vt 0.000000 1.000000
vt 1.000000 0.000000
vt 1.000000 1.000000
vt 0.741400 1.000000
vt 0.251500 1.000000
vt 0.000000 1.000000
vt 0.000000 0.000000
vt 0.251500 0.000000
vt 0.741400 0.000000
vt 0.000000 0.000000
vt 1.000000 0.000000
vt 1.000000 1.000000
vt 0.000000 1.000000
vn -0.0000 0.0000 1.0000
vn -1.0000 0.0000 0.0000
vn 0.0000 0.0000 -1.0000
vn 1.0000 0.0000 0.0000
usemtl window1
s 1
f 1/1/1 2/2/1 3/3/1 4/4/1
f 5/5/2 6/6/2 7/7/2 8/8/2 9/9/2 10/10/2 11/11/2 12/12/2
f 13/13/2 14/14/2 15/15/2 16/16/2 17/17/2 18/18/2 19/19/2 20/20/2
f 21/21/3 22/22/3 23/23/3 24/24/3
usemtl window1.012
f 25/25/1 26/26/1 27/27/1 28/28/1
f 29/29/2 30/30/2 31/31/2 32/32/2 33/33/2 34/34/2 35/35/2 36/36/2
f 37/37/2 38/38/2 39/39/2 40/40/2 41/41/2 42/42/2 43/43/2 44/44/2
f 45/45/3 46/46/3 47/47/3 48/48/3
usemtl window1.015
f 49/49/1 50/50/1 51/51/1 52/52/1
f 53/53/2 54/54/2 55/55/2 56/56/2 57/57/2 58/58/2 59/59/2 60/60/2
f 61/61/2 62/62/2 63/63/2 64/64/2 65/65/2 66/66/2 67/67/2 68/68/2
f 69/69/3 70/70/3 71/71/3 72/72/3
usemtl window1.018
f 73/73/4 74/74/4 75/75/4 76/76/4
f 77/77/1 78/78/1 79/79/1 80/80/1 81/81/1 82/82/1 83/83/1 84/84/1
f 85/85/1 86/86/1 87/87/1 88/88/1 89/89/1 90/90/1 91/91/1 92/92/1
f 93/93/2 94/94/2 95/95/2 96/96/2
usemtl window1.021
f 97/97/4 98/98/4 99/99/4 100/100/4
f 101/101/1 102/102/1 103/103/1 104/104/1 105/105/1 106/106/1 107/107/1 108/108/1
f 109/109/1 110/110/1 111/111/1 112/112/1 113/113/1 114/114/1 115/115/1 116/116/1
f 117/117/2 118/118/2 119/119/2 120/120/2
usemtl window1.024
f 121/121/2 122/122/2 123/123/2 124/124/2
f 125/125/3 126/126/3 127/127/3 128/128/3 129/129/3 130/130/3 131/131/3 132/132/3
f 133/133/3 134/134/3 135/135/3 136/136/3 137/137/3 138/138/3 139/139/3 140/140/3
f 141/141/4 142/142/4 143/143/4 144/144/4
usemtl window1.027
f 145/145/2 146/146/2 147/147/2 148/148/2
f 149/149/3 150/150/3 151/151/3 152/152/3 153/153/3 154/154/3 155/155/3 156/156/3
f 157/157/3 158/158/3 159/159/3 160/160/3 161/161/3 162/162/3 163/163/3 164/164/3
f 165/165/4 166/166/4 167/167/4 168/168/4
