# Blender v3.1.2 OBJ File: 'scena1.blend'
# www.blender.org
mtllib window2_lit.mtl
o window2_lit_Cube.101
v 13.651754 5.414298 9.897078
v 13.651754 4.317507 9.897078
v 12.874985 4.317507 9.897078
v 12.874985 5.414298 9.897078
v 19.287411 7.743187 9.897078
v 19.287411 6.576085 9.897078
v 18.509171 6.576085 9.897078
v 18.509171 7.743187 9.897078
v 17.347382 2.121444 9.897078
v 17.347382 1.121777 9.897078
v 16.674686 1.121777 9.897078
v 16.674686 2.121444 9.897078
v 14.814421 7.742309 15.326711
v 14.814421 6.576963 15.326713
v 16.675564 7.742309 15.326713
v 19.286531 6.576963 15.326713
v 19.286531 7.742309 15.326713
v 18.510048 7.742309 15.326713
v 18.510048 6.576963 15.326713
v 16.675564 5.413420 15.326713
v 16.675564 4.318385 15.326712
v 23.581486 6.580856 14.174127
v 23.581486 6.580856 14.856129
v 23.581486 4.322278 14.174126
v 23.581486 5.409528 14.174127
v 23.581486 5.409527 14.856129
v 23.581486 4.322278 14.856129
v 23.581486 4.322278 12.262830
v 23.581486 5.409528 12.262830
v 23.581486 5.409528 13.002798
v 23.581486 4.322278 13.002798
v 23.581486 6.580856 12.262832
v 23.581486 7.738417 12.262832
v 23.581486 7.738417 13.002798
v 23.581486 6.580856 13.002798
v 23.581488 6.580856 10.351536
v 23.581488 7.738417 10.351536
v 23.581488 7.738417 11.091502
v 23.581488 6.580856 11.091502
v 23.581488 4.322278 10.351536
v 23.581488 5.409528 10.351536
v 23.581486 5.409528 11.091502
v 23.581488 4.322278 11.091501
v -17.967310 5.414298 9.897078
v -17.967310 4.317507 9.897078
v -18.640005 4.317507 9.897078
v -18.640005 5.414298 9.897078
v -17.967310 7.743187 9.897078
v -17.967310 6.576085 9.897078
v -18.640005 6.576085 9.897078
v -18.640005 7.743187 9.897078
v -19.802671 6.576963 15.326713
v -19.802671 7.742309 15.326713
v -20.500269 7.742309 15.326711
v -20.500269 6.576963 15.326713
v -17.968187 6.576963 15.326713
v -17.968187 7.742309 15.326713
v -18.639128 7.742309 15.326713
v -18.639128 6.576963 15.326713
v -16.804644 7.742309 15.326713
v -17.968187 4.318385 15.326712
v -17.968187 5.413420 15.326713
v -18.639128 5.413420 15.326713
v -18.639128 4.318385 15.326712
v -19.802671 4.318385 15.326712
v -19.802671 5.413420 15.326713
v -20.500269 5.413420 15.326713
v -20.500269 4.318385 15.326712
v -11.733208 6.580856 14.174127
v -11.733208 7.738417 14.174127
v -11.733208 7.738417 14.856129
v -11.733208 6.580856 14.856129
v -11.733208 6.580856 12.262832
v -11.733208 7.738417 12.262832
v -11.733208 7.738417 13.002798
v -11.733208 6.580856 13.002798
v -11.733204 6.580856 10.351536
v -11.733204 7.738417 10.351536
v -11.733204 7.738417 11.091502
v -11.733204 6.580856 11.091502
v -11.733204 4.322278 10.351536
v -11.733204 5.409528 10.351536
v -11.733208 5.409528 11.091502
v -11.733204 4.322278 11.091501
v -4.014536 5.414298 9.955086
v -4.014536 4.317507 9.955086
v -4.791306 4.317507 9.955086
v -4.791306 5.414298 9.955086
v 1.621120 7.743187 9.955084
v 1.621120 6.576085 9.955084
v 0.842882 6.576085 9.955084
v 0.842882 7.743187 9.955084
v -2.851868 7.742309 15.384719
v -2.851868 6.576963 15.384721
v -0.319786 7.742309 15.384720
v -0.990725 7.742309 15.384720
v 1.620243 6.576963 15.384719
v 1.620243 7.742309 15.384719
v 0.843760 7.742309 15.384720
v 0.843760 6.576963 15.384720
v -0.319786 4.318385 15.384720
v -0.319786 5.413420 15.384720
v -0.990725 5.413420 15.384720
v -0.990725 4.318385 15.384720
v -2.851868 5.413420 15.384721
v -2.851868 4.318385 15.384720
v 5.915197 6.580856 14.232132
v 5.915197 7.738417 14.232132
v 5.915197 7.738417 14.914134
v 5.915197 6.580856 14.914134
v 5.915197 4.322278 14.232132
v 5.915197 5.409528 14.232132
v 5.915197 5.409527 14.914134
v 5.915197 4.322278 14.914134
v 5.915196 4.322278 12.320835
v 5.915196 5.409528 12.320835
v 5.915196 5.409528 13.060803
v 5.915196 4.322278 13.060803
v 5.915196 6.580856 12.320837
v 5.915196 7.738417 12.320837
v 5.915196 7.738417 13.060803
v 5.915196 6.580856 13.060803
v 5.915198 6.580856 10.409541
v 5.915198 7.738417 10.409541
v 5.915198 7.738417 11.149508
v 5.915198 6.580856 11.149508
v 5.915198 4.322278 10.409541
v 5.915198 5.409528 10.409541
v 5.915196 5.409528 11.149508
v 5.915198 4.322278 11.149508
v -11.178108 5.414299 18.356451
v -11.178108 5.414299 19.133221
v -11.178108 7.743187 18.356449
v -11.178108 7.743187 19.133221
v -11.178108 7.743187 14.660823
v -11.178108 6.576085 14.660823
v -11.178108 7.743187 15.333518
v -11.178108 7.743187 12.720794
v -11.178108 6.576085 12.720794
v -11.178108 6.576085 13.499035
v -11.178108 7.743187 13.499035
v -11.178108 2.121444 14.660823
v -11.178108 1.121777 14.660823
v -11.178108 1.121777 15.333518
v -11.178108 2.121444 15.333518
v -5.748474 6.576963 16.496185
v -5.748474 6.576963 17.193785
v -5.748474 6.576963 14.661703
v -5.748474 6.576963 15.332642
v -5.748474 4.318385 14.661703
v -5.748474 5.413420 14.661703
v -5.748474 5.413420 15.332642
v -5.748474 4.318385 15.332642
v -5.748474 4.318385 16.496185
v -5.748474 5.413420 16.496185
v -5.748474 5.413420 17.193785
v -5.748474 4.318385 17.193785
v -6.901060 4.322278 8.426720
v -6.901060 5.409528 8.426720
v -6.219057 5.409528 8.426720
v -6.219057 4.322278 8.426720
v -8.812355 6.580856 8.426720
v -8.812355 7.738417 8.426720
v -8.072388 7.738417 8.426720
v -8.072388 6.580856 8.426720
v -10.723650 6.580856 8.426718
v -10.723650 7.738417 8.426718
v -9.983686 7.738417 8.426718
v -9.983686 6.580856 8.426718
v 24.168423 5.414299 14.660823
v 24.168421 4.317507 14.660823
v 24.168421 4.317507 15.333518
v 24.168423 5.414299 15.333518
v 24.168423 5.414299 18.356451
v 24.168421 4.317507 18.356451
v 24.168421 4.317507 19.133221
v 24.168421 5.414299 19.133221
v 24.168423 6.576085 18.356451
v 24.168423 6.576085 19.133221
v 24.168423 7.743187 14.660823
v 24.168423 6.576085 14.660823
v 24.168423 6.576085 15.333518
v 24.168423 7.743187 15.333518
v 24.168423 7.743187 12.720794
v 24.168423 6.576085 12.720794
v 24.168423 6.576085 13.499035
v 24.168423 7.743187 13.499035
v 24.168421 2.121444 14.660823
v 24.168421 1.121777 14.660823
v 24.168421 1.121777 15.333518
v 24.168421 2.121444 15.333518
v 29.598057 6.576963 16.496185
v 29.598057 7.742309 16.496185
v 29.598057 7.742309 17.193785
v 29.598057 6.576963 17.193785
v 29.598057 6.576963 14.661703
v 29.598057 7.742309 14.661703
v 29.598057 7.742309 15.332642
v 29.598057 6.576963 15.332642
v 29.598057 6.576963 12.721674
v 29.598057 7.742309 12.721674
v 29.598057 7.742309 13.498158
v 29.598057 6.576963 13.498158
v 29.598057 4.318385 14.661703
v 29.598057 5.413420 14.661703
v 29.598057 5.413420 15.332642
v 29.598057 4.318385 15.332642
v 29.598057 4.318385 16.496185
v 29.598057 5.413420 16.496185
v 29.598057 4.318385 17.193785
v 26.534174 4.322278 8.426720
v 26.534174 5.409528 8.426720
v 27.274143 5.409528 8.426720
v 27.274143 4.322278 8.426720
v 24.622879 4.322278 8.426718
v 24.622879 5.409528 8.426718
v 25.362846 5.409528 8.426720
v 25.362846 4.322278 8.426718
v 11.860102 5.414298 13.397455
v 11.860102 4.317507 13.397455
v 11.860102 4.317507 12.724760
v 11.860102 5.414298 12.724760
v 11.860103 5.414298 9.701828
v 11.860103 4.317507 9.701828
v 11.860103 4.317507 8.925058
v 11.860103 5.414299 8.925058
v 11.860102 7.743188 13.397455
v 11.860102 6.576085 13.397455
v 11.860102 7.743188 15.337484
v 11.860102 6.576085 15.337484
v 11.860102 6.576085 14.559244
v 11.860102 7.743188 14.559244
v 11.860102 2.121444 13.397455
v 11.860102 1.121777 13.397455
v 11.860102 1.121777 12.724760
v 11.860102 2.121444 12.724760
v 6.430467 6.576963 11.562091
v 6.430467 7.742310 11.562091
v 6.430469 7.742309 10.864492
v 6.430467 6.576963 10.864492
v 6.430467 6.576963 13.396574
v 6.430467 7.742310 13.396574
v 6.430467 7.742310 12.725636
v 6.430467 6.576963 12.725636
v 6.430467 6.576963 15.336603
v 6.430467 7.742310 15.336603
v 6.430467 7.742310 14.560120
v 6.430467 6.576963 14.560120
v 6.430467 4.318385 13.396574
v 6.430467 5.413420 13.396574
v 6.430467 5.413420 12.725636
v 6.430467 4.318385 12.725636
v 6.430467 4.318385 11.562093
v 6.430467 5.413420 11.562093
v 6.430467 5.413420 10.864492
v 6.430467 4.318385 10.864492
v 7.583052 6.580856 19.631557
v 7.583052 7.738417 19.631557
v 6.901049 7.738417 19.631557
v 6.901049 6.580856 19.631557
v 7.583052 4.322278 19.631557
v 7.583052 5.409528 19.631557
v 6.901049 5.409528 19.631557
v 6.901049 4.322278 19.631557
v 9.494348 4.322278 19.631557
v 9.494348 5.409528 19.631557
v 8.754379 5.409528 19.631557
v 8.754379 4.322278 19.631557
v 9.494346 6.580856 19.631557
v 8.754379 6.580856 19.631557
v 11.405643 6.580856 19.631561
v 10.665675 7.738417 19.631559
v 10.665676 6.580856 19.631561
v 11.405643 4.322278 19.631561
v 11.405643 5.409528 19.631561
v 10.665676 5.409528 19.631557
v 10.665676 4.322278 19.631561
v -23.457888 5.414298 13.409535
v -23.457888 4.317507 13.409536
v -23.457888 4.317507 12.736841
v -23.457888 5.414298 12.736841
v -23.457888 7.743187 9.713908
v -23.457888 6.576085 9.713909
v -23.457888 6.576085 8.937140
v -23.457888 7.743187 8.937139
v -23.457888 7.743188 13.409536
v -23.457888 7.743188 12.736841
v -23.457888 7.743188 14.571324
v -23.457888 2.121444 13.409535
v -23.457888 1.121777 13.409535
v -23.457888 1.121777 12.736841
v -23.457888 2.121444 12.736841
v -28.887526 6.576963 11.574172
v -28.887526 7.742310 11.574172
v -28.887522 7.742309 10.876573
v -28.887526 6.576963 10.876574
v -28.887526 6.576963 13.408655
v -28.887526 7.742310 13.408655
v -28.887526 7.742310 12.737717
v -28.887526 6.576963 12.737717
v -28.887526 6.576963 15.348684
v -28.887526 7.742310 15.348684
v -28.887526 7.742310 14.572200
v -28.887526 6.576963 14.572200
v -28.887526 4.318385 13.408655
v -28.887526 5.413420 13.408655
v -28.887526 5.413420 12.737717
v -28.887526 4.318385 12.737717
v -28.887526 4.318385 11.574174
v -28.887526 5.413420 11.574174
v -28.887526 5.413420 10.876574
v -28.887526 4.318385 10.876574
v -27.734941 6.580856 19.643639
v -27.734941 7.738417 19.643639
v -28.416941 7.738417 19.643639
v -28.416941 6.580856 19.643639
v -25.823641 4.322278 19.643639
v -25.823641 5.409528 19.643639
v -25.823645 7.738417 19.643639
v -23.912348 6.580856 19.643642
v -23.912348 7.738417 19.643641
v -23.912348 4.322278 19.643642
v -23.912348 5.409528 19.643642
vt 0.000000 0.000000
vt 1.000000 0.000000
vt 1.000000 1.000000
vt 0.000000 1.000000
vt 0.000000 0.000000
vt 1.000000 0.000000
vt 1.000000 1.000000
vt 0.000000 1.000000
vt 0.000000 0.000000
vt 1.000000 0.000000
vt 1.000000 1.000000
vt 0.000000 1.000000
vt 0.000000 0.000000
vt 1.000000 0.000000
vt 1.000000 1.000000
vt 0.000000 1.000000
vt 0.000000 0.000000
vt 1.000000 0.000000
vt 1.000000 1.000000
vt 0.000000 1.000000
vt 0.000000 0.000000
vt 1.000000 0.000000
vt 1.000000 1.000000
vt 0.000000 1.000000
vt 0.000000 0.000000
vt 1.000000 0.000000
vt 1.000000 1.000000
vt 0.000000 1.000000
vt 0.000000 0.000000
vt 1.000000 0.000000
vt 1.000000 1.000000
vt 0.000000 1.000000
vt 0.000000 0.000000
vt 1.000000 0.000000
vt 1.000000 1.000000
vt 0.000000 1.000000
vt 0.000000 0.000000
vt 1.000000 0.000000
vt 1.000000 1.000000
vt 0.000000 1.000000
vt 0.000000 0.000000
vt 1.000000 0.000000
vt 1.000000 1.000000
vt 0.000000 1.000000
vt 0.000000 0.000000
vt 1.000000 0.000000
vt 1.000000 1.000000
vt 0.000000 1.000000
vt 0.000000 0.000000
vt 1.000000 0.000000
vt 1.000000 1.000000
vt 0.000000 1.000000
vt 0.000000 0.000000
vt 1.000000 0.000000
vt 1.000000 1.000000
vt 0.000000 1.000000
vt 0.000000 0.000000
vt 1.000000 0.000000
vt 1.000000 1.000000
vt 0.000000 1.000000
vt 0.000000 0.000000
vt 1.000000 0.000000
vt 1.000000 1.000000
vt 0.000000 1.000000
vt 0.000000 0.000000
vt 1.000000 0.000000
vt 1.000000 1.000000
vt 0.000000 1.000000
vt 0.000000 0.000000
vt 1.000000 0.000000
vt 1.000000 1.000000
vt 0.000000 1.000000
vt 0.000000 0.000000
vt 1.000000 0.000000
vt 1.000000 1.000000
vt 0.000000 1.000000
vt 0.000000 0.000000
vt 1.000000 0.000000
vt 1.000000 1.000000
vt 0.000000 1.000000
vt 0.000000 0.000000
vt 1.000000 0.000000
vt 1.000000 1.000000
vt 0.000000 1.000000
vt 0.000000 0.000000
vt 1.000000 0.000000
vt 1.000000 1.000000
vt 0.000000 1.000000
vt 0.000000 0.000000
vt 1.000000 0.000000
vt 1.000000 1.000000
vt 0.000000 1.000000
vt 0.000000 0.000000
vt 1.000000 0.000000
vt 1.000000 1.000000
vt 0.000000 1.000000
vt 0.000000 0.000000
vt 1.000000 0.000000
vt 1.000000 1.000000
vt 0.000000 1.000000
vt 0.000000 0.000000
vt 1.000000 0.000000
vt 1.000000 1.000000
vt 0.000000 1.000000
vt 0.000000 0.000000
vt 1.000000 0.000000
vt 1.000000 1.000000
vt 0.000000 1.000000
vt 0.000000 0.000000
vt 1.000000 0.000000
vt 1.000000 1.000000
vt 0.000000 1.000000
vt 0.000000 0.000000
vt 1.000000 0.000000
vt 1.000000 1.000000
vt 0.000000 1.000000
vt 0.000000 0.000000
vt 1.000000 0.000000
vt 1.000000 1.000000
vt 0.000000 1.000000
vt 0.000000 0.000000
vt 1.000000 0.000000
vt 1.000000 1.000000
vt 0.000000 1.000000
vt 0.000000 0.000000
vt 1.000000 0.000000
vt 1.000000 1.000000
vt 0.000000 1.000000
vt 0.000000 0.000000
vt 1.000000 0.000000
vt 1.000000 1.000000
vt 0.000000 1.000000
vt 0.000000 0.000000
vt 1.000000 0.000000
vt 1.000000 1.000000
vt 0.000000 1.000000
vt 0.000000 0.000000
vt 1.000000 0.000000
vt 1.000000 1.000000
vt 0.000000 1.000000
vt 0.000000 0.000000
vt 1.000000 0.000000
vt 1.000000 1.000000
vt 0.000000 1.000000
vt 0.000000 0.000000
vt 1.000000 0.000000
vt 1.000000 1.000000
vt 0.000000 1.000000
vt 0.000000 0.000000
vt 1.000000 0.000000
vt 1.000000 1.000000
vt 0.000000 1.000000
vt 0.000000 0.000000
vt 1.000000 0.000000
vt 1.000000 1.000000
vt 0.000000 1.000000
vt 0.000000 0.000000
vt 1.000000 0.000000
vt 1.000000 1.000000
vt 0.000000 1.000000
vt 0.000000 0.000000
vt 1.000000 0.000000
vt 1.000000 1.000000
vt 0.000000 1.000000
vt 0.000000 0.000000
vt 1.000000 0.000000
vt 1.000000 1.000000
vt 0.000000 1.000000
vt 0.000000 0.000000
vt 1.000000 0.000000
vt 1.000000 1.000000
vt 0.000000 1.000000
vt 0.000000 0.000000
vt 1.000000 0.000000
vt 1.000000 1.000000
vt 0.000000 1.000000
vt 0.000000 0.000000
vt 1.000000 0.000000
vt 1.000000 1.000000
vt 0.000000 1.000000
vt 0.000000 0.000000
vt 1.000000 0.000000
vt 1.000000 1.000000
vt 0.000000 1.000000
vt 0.000000 0.000000
vt 1.000000 0.000000
vt 1.000000 1.000000
vt 0.000000 1.000000
vt 0.000000 0.000000
vt 1.000000 0.000000
vt 1.000000 1.000000
vt 0.000000 1.000000
vt 0.000000 0.000000
vt 1.000000 0.000000
vt 1.000000 1.000000
vt 0.000000 1.000000
vt 0.000000 0.000000
vt 1.000000 0.000000
vt 1.000000 1.000000
vt 0.000000 1.000000
vt 0.000000 0.000000
vt 1.000000 0.000000
vt 1.000000 1.000000
vt 0.000000 1.000000
vt 0.000000 0.000000
vt 1.000000 0.000000
vt 1.000000 1.000000
vt 0.000000 1.000000
vt 0.000000 0.000000
vt 1.000000 0.000000
vt 1.000000 1.000000
vt 0.000000 1.000000
vt 0.000000 0.000000
vt 1.000000 0.000000
vt 1.000000 1.000000
vt 0.000000 1.000000
vt 0.000000 0.000000
vt 1.000000 0.000000
vt 1.000000 1.000000
vt 0.000000 1.000000
vt 0.000000 0.000000
vt 1.000000 0.000000
vt 1.000000 1.000000
vt 0.000000 1.000000
vt 0.000000 0.000000
vt 1.000000 0.000000
vt 1.000000 1.000000
vt 0.000000 1.000000
vt 0.000000 0.000000
vt 1.000000 0.000000
vt 1.000000 1.000000
vt 0.000000 1.000000
vt 0.000000 0.000000
vt 1.000000 0.000000
vt 1.000000 1.000000
vt 0.000000 1.000000
vt 0.000000 0.000000
vt 1.000000 0.000000
vt 1.000000 1.000000
vt 0.000000 1.000000
vt 0.000000 0.000000
vt 1.000000 0.000000
vt 1.000000 1.000000
vt 0.000000 1.000000
vt 0.000000 0.000000
vt 1.000000 0.000000
vt 1.000000 1.000000
vt 0.000000 1.000000
vt 0.000000 0.000000
vt 1.000000 0.000000
vt 1.000000 1.000000
vt 0.000000 1.000000
vt 0.000000 0.000000
vt 1.000000 0.000000
vt 1.000000 1.000000
vt 0.000000 1.000000
vt 0.000000 0.000000
vt 1.000000 0.000000
vt 1.000000 1.000000
vt 0.000000 1.000000
vt 0.000000 0.000000
vt 1.000000 0.000000
vt 1.000000 1.000000
vt 0.000000 1.000000
vt 0.000000 0.000000
vt 1.000000 0.000000
vt 1.000000 1.000000
vt 0.000000 1.000000
vt 0.000000 0.000000
vt 1.000000 0.000000
vt 1.000000 1.000000
vt 0.000000 1.000000
vt 0.000000 0.000000
vt 1.000000 0.000000
vt 1.000000 1.000000
vt 0.000000 1.000000
vn 0.0000 0.0000 -1.0000
vn 0.0000 0.0000 1.0000
vn 1.0000 0.0000 0.0000
vn -1.0000 0.0000 0.0000
usemtl window2.028
s 1
f 1/1/1 2/2/1 3/3/1 4/4/1
f 5/5/1 6/6/1 7/7/1 8/8/1
f 9/9/1 10/10/1 11/11/1 12/12/1
f 16/13/2 17/14/2 18/15/2 19/16/2
f 24/17/3 25/18/3 26/19/3 27/20/3
f 28/21/3 29/22/3 30/23/3 31/24/3
f 32/25/3 33/26/3 34/27/3 35/28/3
f 36/29/3 37/30/3 38/31/3 39/32/3
f 40/33/3 41/34/3 42/35/3 43/36/3
usemtl window2.029
f 44/37/1 45/38/1 46/39/1 47/40/1
f 48/41/1 49/42/1 50/43/1 51/44/1
f 52/45/2 53/46/2 54/47/2 55/48/2
f 56/49/2 57/50/2 58/51/2 59/52/2
f 61/53/2 62/54/2 63/55/2 64/56/2
f 65/57/2 66/58/2 67/59/2 68/60/2
f 69/61/3 70/62/3 71/63/3 72/64/3
f 73/65/3 74/66/3 75/67/3 76/68/3
f 77/69/3 78/70/3 79/71/3 80/72/3
f 81/73/3 82/74/3 83/75/3 84/76/3
usemtl window2.030
f 85/77/1 86/78/1 87/79/1 88/80/1
f 89/81/1 90/82/1 91/83/1 92/84/1
f 97/85/2 98/86/2 99/87/2 100/88/2
f 101/89/2 102/90/2 103/91/2 104/92/2
f 107/93/3 108/94/3 109/95/3 110/96/3
f 111/97/3 112/98/3 113/99/3 114/100/3
f 115/101/3 116/102/3 117/103/3 118/104/3
f 119/105/3 120/106/3 121/107/3 122/108/3
f 123/109/3 124/110/3 125/111/3 126/112/3
f 127/113/3 128/114/3 129/115/3 130/116/3
usemtl window2.031
f 138/117/4 139/118/4 140/119/4 141/120/4
f 142/121/4 143/122/4 144/123/4 145/124/4
f 150/125/3 151/126/3 152/127/3 153/128/3
f 154/129/3 155/130/3 156/131/3 157/132/3
f 158/133/1 159/134/1 160/135/1 161/136/1
f 162/137/1 163/138/1 164/139/1 165/140/1
f 166/141/1 167/142/1 168/143/1 169/144/1
usemtl window2.032
f 170/145/4 171/146/4 172/147/4 173/148/4
f 174/149/4 175/150/4 176/151/4 177/152/4
f 180/153/4 181/154/4 182/155/4 183/156/4
f 184/157/4 185/158/4 186/159/4 187/160/4
f 188/161/4 189/162/4 190/163/4 191/164/4
f 192/165/3 193/166/3 194/167/3 195/168/3
f 196/169/3 197/170/3 198/171/3 199/172/3
f 200/173/3 201/174/3 202/175/3 203/176/3
f 204/177/3 205/178/3 206/179/3 207/180/3
f 211/181/1 212/182/1 213/183/1 214/184/1
f 215/185/1 216/186/1 217/187/1 218/188/1
usemtl window2.033
f 219/189/3 220/190/3 221/191/3 222/192/3
f 223/193/3 224/194/3 225/195/3 226/196/3
f 229/197/3 230/198/3 231/199/3 232/200/3
f 233/201/3 234/202/3 235/203/3 236/204/3
f 237/205/4 238/206/4 239/207/4 240/208/4
f 241/209/4 242/210/4 243/211/4 244/212/4
f 245/213/4 246/214/4 247/215/4 248/216/4
f 249/217/4 250/218/4 251/219/4 252/220/4
f 253/221/4 254/222/4 255/223/4 256/224/4
f 257/225/2 258/226/2 259/227/2 260/228/2
f 261/229/2 262/230/2 263/231/2 264/232/2
f 265/233/2 266/234/2 267/235/2 268/236/2
f 274/237/2 275/238/2 276/239/2 277/240/2
usemtl window2.034
f 278/241/3 279/242/3 280/243/3 281/244/3
f 282/245/3 283/246/3 284/247/3 285/248/3
f 289/249/3 290/250/3 291/251/3 292/252/3
f 293/253/4 294/254/4 295/255/4 296/256/4
f 297/257/4 298/258/4 299/259/4 300/260/4
f 301/261/4 302/262/4 303/263/4 304/264/4
f 305/265/4 306/266/4 307/267/4 308/268/4
f 309/269/4 310/270/4 311/271/4 312/272/4
f 313/273/2 314/274/2 315/275/2 316/276/2
l 22 23
l 13 14
l 20 21
l 93 94
l 95 96
l 105 106
l 133 134
l 135 136
l 135 137
l 146 147
l 148 149
l 131 132
l 208 209
l 208 210
l 178 179
l 269 270
l 227 228
l 271 273
l 272 273
l 286 287
l 317 318
l 320 321
l 322 323
