# Blender v3.1.2 OBJ File: 'scena.blend'
# www.blender.org
mtllib bocni_okna.mtl
o building4_bocni_okna_Cube.110
v -10.124807 11.459265 -15.125192
v -10.124807 9.936523 -15.726213
v -10.124807 10.724675 -15.726213
v -10.124807 9.936523 -14.627712
v -10.124807 11.340241 -15.112038
v -10.124807 11.340241 -14.654746
v 10.472092 11.340241 -15.726211
v 10.472092 9.936523 -15.726211
v 10.472092 9.936523 -14.627709
v 10.472092 11.340241 -14.627709
v -10.072335 4.773155 -15.584377
v -10.124807 4.773155 -14.627712
v -10.124807 3.369438 -14.627712
v -10.077796 3.369438 -15.585983
v -10.124807 6.652979 -14.627712
v -10.124807 6.652979 -15.726213
v -10.124807 8.056698 -15.726213
v -10.124807 8.056698 -14.627712
v 10.472092 8.056698 -15.726210
v 10.472092 6.652979 -15.726210
v 10.472092 6.652979 -14.627708
v 10.472092 8.056698 -14.627708
v 10.472092 4.773155 -15.726210
v 10.472092 3.369438 -15.726210
v 10.472092 3.369438 -14.627708
v 10.472092 4.773155 -14.627708
v -10.124807 11.340241 -10.680923
v -10.124807 9.936523 -10.680923
v -10.124807 9.936523 -11.779425
v -10.124807 11.340241 -11.779425
v 10.472092 11.340241 -11.779422
v 10.472092 9.936523 -11.779422
v 10.472092 9.936523 -10.680921
v 10.472092 11.340241 -10.680921
v -10.124807 8.056698 -10.680923
v -10.124807 6.652979 -10.680923
v -10.124807 6.652979 -11.779425
v -10.124807 8.056698 -11.779425
v -10.124807 4.773155 -10.680923
v -10.124807 3.369439 -10.680923
v -10.124807 3.369438 -11.779425
v -10.124807 4.773155 -11.779425
v 10.472092 3.369438 -11.779421
v 10.472092 3.369439 -10.680920
v 10.472092 4.773155 -10.680920
v 10.472092 4.773155 -11.779422
v 10.472092 6.652979 -11.779422
v 10.472092 6.652979 -10.680920
v 10.472092 8.056698 -10.680920
v 10.472092 8.056698 -11.779422
v -10.124807 10.724675 -15.152658
v -10.071238 4.714018 -15.583992
v -10.070166 4.649164 -15.584471
v -10.068639 4.534791 -15.585540
v -10.066796 4.278857 -15.587743
v -10.066624 4.161550 -15.589151
v -10.066881 4.060604 -15.587537
v -10.067037 4.027338 -15.586908
v -10.067225 3.979207 -15.589917
v -10.067482 3.930168 -15.593295
v -10.068250 3.860195 -15.587592
v -10.068708 3.823431 -15.585041
v -10.070191 3.705352 -15.588497
v -10.070734 3.667055 -15.591278
v -10.071929 3.604913 -15.588588
v -10.072717 3.568527 -15.586491
vt 0.037232 0.557341
vt 0.037232 0.163837
vt 0.367700 0.163837
vt 0.367700 0.864676
vt 0.209778 0.864676
vt 0.209778 0.557341
vt 0.037232 0.864676
vt 0.367700 0.864676
vt 0.367700 0.163837
vt 0.037232 0.163837
vt 0.079419 0.163837
vt 0.367700 0.163837
vt 0.367700 0.864676
vt 0.079902 0.864676
vt 0.080017 0.835151
vt 0.079873 0.802771
vt 0.079552 0.745667
vt 0.078889 0.617886
vt 0.078465 0.559317
vt 0.078951 0.508918
vt 0.079140 0.492309
vt 0.078235 0.468278
vt 0.077219 0.443795
vt 0.078934 0.408859
vt 0.079702 0.390504
vt 0.078662 0.331550
vt 0.077826 0.312429
vt 0.078635 0.281403
vt 0.079266 0.263236
vt 0.037232 0.864676
vt 0.037232 0.163837
vt 0.367700 0.163837
vt 0.367700 0.864676
vt 0.037232 0.864676
vt 0.367700 0.864676
vt 0.367700 0.163837
vt 0.037232 0.163837
vt 0.037232 0.864676
vt 0.367700 0.864676
vt 0.367700 0.163837
vt 0.037232 0.163837
vt 0.037232 0.864676
vt 0.367700 0.864676
vt 0.367700 0.163837
vt 0.037232 0.163837
vt 0.037232 0.864676
vt 0.037232 0.163837
vt 0.367700 0.163837
vt 0.367700 0.864676
vt 0.037232 0.864676
vt 0.367700 0.864676
vt 0.367700 0.163837
vt 0.037232 0.163837
vt 0.037232 0.864676
vt 0.367700 0.864676
vt 0.367700 0.163837
vt 0.037232 0.163837
vt 0.037232 0.864676
vt 0.037232 0.163837
vt 0.367700 0.163837
vt 0.367700 0.864676
vt 0.037232 0.864676
vt 0.037232 0.163837
vt 0.367700 0.163837
vt 0.367700 0.864676
vn -1.0000 -0.0000 0.0000
vn 1.0000 0.0000 0.0000
vn -0.9983 0.0020 -0.0575
usemtl Cam.004
s off
f 3/1/1 2/2/1 4/3/1 6/4/1 5/5/1 51/6/1
f 7/7/2 10/8/2 9/9/2 8/10/2
f 14/11/3 13/12/3 12/13/3 11/14/3 52/15/3 53/16/3 54/17/3 55/18/3 56/19/3 57/20/3 58/21/3 59/22/3 60/23/3 61/24/3 62/25/3 63/26/3 64/27/3 65/28/3 66/29/3
f 17/30/1 16/31/1 15/32/1 18/33/1
f 19/34/2 22/35/2 21/36/2 20/37/2
f 23/38/2 26/39/2 25/40/2 24/41/2
f 27/42/1 30/43/1 29/44/1 28/45/1
f 34/46/2 33/47/2 32/48/2 31/49/2
f 35/50/1 38/51/1 37/52/1 36/53/1
f 39/54/1 42/55/1 41/56/1 40/57/1
f 45/58/2 44/59/2 43/60/2 46/61/2
f 49/62/2 48/63/2 47/64/2 50/65/2
