# Blender v3.1.2 OBJ File: 'scena.blend'
# www.blender.org
mtllib dvere.mtl
o building4_dvere_Cube.116
v 0.173643 -0.013033 -18.324364
v 1.711790 -0.013033 -18.324364
v 1.711790 2.565754 -18.324364
v 0.173643 2.565754 -18.324364
v -1.364505 2.565754 -18.324364
v -1.364505 -0.013033 -18.324364
v 0.173642 -0.013033 -8.082769
v -1.364506 -0.013033 -8.082769
v -1.364506 2.565754 -8.082769
v 0.173642 2.565754 -8.082769
v 1.711789 2.565754 -8.082769
v 1.711789 -0.013033 -8.082769
vt 0.109957 0.139268
vt 0.109957 0.986060
vt 0.896612 0.986060
vt 0.896612 0.139268
vt 0.121622 0.096582
vt 0.941386 0.096581
vt 0.941386 0.979014
vt 0.121622 0.979014
vt 0.109957 0.139268
vt 0.109957 0.986060
vt 0.896612 0.986060
vt 0.896612 0.139268
vt 0.121622 0.096582
vt 0.941386 0.096581
vt 0.941386 0.979014
vt 0.121622 0.979014
vn 0.0000 0.0000 -1.0000
vn 0.0000 0.0000 1.0000
usemtl Kapi.010
s off
f 1/1/1 4/2/1 3/3/1 2/4/1
f 1/5/1 6/6/1 5/7/1 4/8/1
usemtl Kapi.003
f 7/9/2 10/10/2 9/11/2 8/12/2
f 7/13/2 12/14/2 11/15/2 10/16/2
