# Blender v3.1.2 OBJ File: 'scena.blend'
# www.blender.org
mtllib top.mtl
o building4_top_Cube.113
v -9.352465 13.168314 -17.101221
v -9.321253 13.113432 -17.101221
v -3.821347 13.113432 -17.101219
v -3.821346 13.113432 -18.296242
v 0.173643 13.113432 -18.296240
v -10.194325 13.113432 -13.106231
v -10.194325 13.113432 -15.152658
v 4.168633 13.113432 -18.296240
v 4.168633 13.113432 -17.101219
v 10.541611 13.113432 -17.101217
v 10.541610 13.113432 -13.106227
v 10.472092 13.101037 -13.187434
v -3.821347 13.113432 -9.305916
v -10.194326 13.113432 -9.305916
v -3.821348 13.113432 -8.110894
v -10.194325 13.113432 -13.300907
v 0.173642 13.113432 -8.110893
v 10.541609 13.113432 -9.305913
v 4.168632 13.113432 -9.305914
v 4.168632 13.113432 -8.110893
v 10.541610 13.113432 -13.300903
v 10.472092 13.101037 -13.219697
v -9.321254 13.113432 -15.152658
v -9.527269 13.113432 -15.152658
v -9.733285 13.113432 -15.152658
v -9.982824 13.113432 -15.152658
v 0.173643 13.113432 -13.106229
v 0.173643 13.113432 -13.300905
vt 0.539438 0.801713
vt 0.539438 0.801713
vt 0.539438 0.801713
vt 0.539318 0.801698
vt 0.539318 0.801698
vt 0.539318 0.801698
vt 0.539318 0.801698
vt 0.539318 0.801698
vt 0.539318 0.801698
vt 0.539307 0.801648
vt 0.539438 0.801648
vt 0.539307 0.801648
vt 0.539318 0.801698
vt 0.539438 0.801713
vt 0.539438 0.801713
vt 0.539438 0.801713
vt 0.539438 0.801648
vt 0.539307 0.801648
vt 0.539318 0.801698
vt 0.539438 0.801713
vt 0.539438 0.801713
vt 0.539438 0.801713
vt 0.539438 0.801713
vt 0.539318 0.801698
vt 0.539307 0.801648
vn 0.0000 1.0000 0.0000
usemtl Brick.007
s off
f 5/1/1 4/2/1 3/3/1 2/4/1 23/5/1 24/6/1 25/7/1 26/8/1 7/9/1 6/10/1 27/11/1
f 5/1/1 27/11/1 11/12/1 10/13/1 9/14/1 8/15/1
f 17/16/1 28/17/1 16/18/1 14/19/1 13/20/1 15/21/1
f 17/16/1 20/22/1 19/23/1 18/24/1 21/25/1 28/17/1
l 1 2
