# Blender v3.1.2 OBJ File: 'scena.blend'
# www.blender.org
mtllib vysoke_okna.mtl
o building4_okna_vysoky_Cube.107
v -2.768772 4.892182 -8.113626
v -2.768772 11.459269 -8.113626
v -1.591807 11.459269 -8.113626
v -1.591807 4.892183 -8.113626
v 0.173642 4.892183 -8.113626
v -0.414841 4.892183 -8.113626
v -0.414841 11.459269 -8.113626
v 0.173642 11.459269 -8.113626
v 0.762125 11.459269 -8.113626
v 0.762125 4.892183 -8.113626
v 3.116056 11.459269 -8.113626
v 3.116056 4.892182 -8.113626
v 1.939091 4.892183 -8.113626
v 1.939091 11.459269 -8.113626
v 3.116058 4.892182 -18.293507
v 3.116058 11.459270 -18.293507
v 1.939093 11.459270 -18.293507
v 1.939093 4.892183 -18.293507
v 0.173644 4.892183 -18.293507
v 0.762127 4.892183 -18.293507
v 0.762127 11.459270 -18.293507
v 0.173644 11.459270 -18.293507
v -0.414839 11.459270 -18.293507
v -0.414839 4.892183 -18.293507
v -2.768770 11.459270 -18.293509
v -2.768770 4.892182 -18.293509
v -1.591805 4.892183 -18.293507
v -1.591805 11.459270 -18.293507
vt 0.341816 0.992572
vt 0.446335 0.992572
vt 0.446335 0.102233
vt 0.341816 0.102233
vt 0.335865 0.105746
vt 0.335865 0.990278
vt 0.399148 0.990278
vt 0.399148 0.105746
vt 0.399148 0.105746
vt 0.399148 0.990278
vt 0.341816 0.992572
vt 0.341816 0.102233
vt 0.446335 0.102233
vt 0.446335 0.992572
vt 0.341816 0.992572
vt 0.446335 0.992572
vt 0.446335 0.102233
vt 0.341816 0.102233
vt 0.335865 0.105746
vt 0.335865 0.990278
vt 0.399148 0.990278
vt 0.399148 0.105746
vt 0.399148 0.105746
vt 0.399148 0.990278
vt 0.341816 0.992572
vt 0.341816 0.102233
vt 0.446335 0.102233
vt 0.446335 0.992572
vn -0.0000 0.0000 1.0000
vn -0.0000 0.0000 -1.0000
usemtl Cam_2.002
s off
f 3/1/1 2/2/1 1/3/1 4/4/1
f 5/5/1 8/6/1 7/7/1 6/8/1
f 5/5/1 10/9/1 9/10/1 8/6/1
f 14/11/1 13/12/1 12/13/1 11/14/1
usemtl Cam_2.011
f 17/15/2 16/16/2 15/17/2 18/18/2
f 19/19/2 22/20/2 21/21/2 20/22/2
f 19/19/2 24/23/2 23/24/2 22/20/2
f 28/25/2 27/26/2 26/27/2 25/28/2
